<?xml version="1.0" standalone="no"?>
<!DOCTYPE svg PUBLIC "-//W3C//DTD SVG 20010904//EN"
 "http://www.w3.org/TR/2001/REC-SVG-20010904/DTD/svg10.dtd">
<svg version="1.0" xmlns="http://www.w3.org/2000/svg"
 width="3840.000000pt" height="2400.000000pt" viewBox="0 0 3840.000000 2400.000000"
 preserveAspectRatio="xMidYMid meet" >

<g transform="translate(0.000000,2400.000000) scale(0.100000,-0.100000)"
 stroke="none" fill='#001121'>
<path d="M9972 13953 c0 -66 35 -548 54 -732 8 -85 -9 -43 -36 87 -17 81 -27
112 -38 112 -10 0 -12 -7 -9 -22 5 -22 36 -224 58 -378 6 -41 13 -85 16 -97 4
-17 1 -23 -11 -23 -21 0 -20 -8 4 -234 15 -145 20 -252 19 -484 0 -163 7 -506
16 -762 15 -422 22 -1686 10 -1699 -8 -7 -830 58 -1065 85 -629 72 -824 97
-1035 135 l-231 41 0 104 c-1 120 -2 123 -125 264 -41 47 -96 115 -122 152
-51 72 -131 149 -217 207 -78 54 -289 163 -397 205 -91 36 -94 36 -158 25 -58
-10 -72 -9 -105 6 -27 12 -51 16 -77 11 -39 -7 -424 -19 -550 -17 -54 1 -80
-4 -105 -18 -18 -11 -52 -22 -75 -26 -24 -4 -45 -11 -49 -16 -3 -5 -28 -9 -55
-9 -43 0 -54 -4 -85 -35 -26 -26 -43 -35 -69 -35 -25 0 -45 -10 -79 -39 -25
-22 -60 -42 -78 -46 -63 -13 -96 -61 -113 -159 -3 -21 -15 -50 -25 -65 -10
-14 -24 -52 -30 -83 -6 -32 -25 -84 -41 -115 -19 -38 -29 -73 -29 -102 0 -25
-8 -71 -17 -104 -13 -47 -14 -66 -5 -89 6 -16 8 -43 5 -61 -4 -24 0 -37 16
-51 27 -25 27 -36 -3 -36 -17 0 -30 -10 -44 -34 -51 -86 -102 -88 -397 -14
-27 7 -57 28 -96 67 -31 31 -71 64 -89 75 l-32 19 4 -37 c5 -42 6 -41 -32 -21
-16 8 -56 21 -90 29 -33 8 -94 33 -136 56 -58 32 -113 51 -223 77 -240 58
-248 59 -343 34 -46 -11 -143 -30 -216 -41 -185 -28 -332 -86 -388 -153 -22
-26 -54 -44 -124 -71 -52 -21 -106 -45 -120 -55 -14 -10 -52 -20 -90 -24 -36
-3 -82 -13 -102 -21 -34 -15 -39 -22 -65 -102 -21 -64 -34 -89 -50 -97 -13 -5
-25 -17 -28 -26 -4 -9 -26 -31 -51 -49 l-45 -32 -207 -10 c-280 -13 -366 -36
-519 -138 -68 -45 -138 -53 -243 -27 -95 23 -140 16 -210 -33 -31 -22 -107
-66 -170 -97 -110 -55 -121 -64 -266 -206 -83 -83 -158 -149 -169 -149 -10 0
-42 20 -71 45 -56 48 -100 59 -125 29 -28 -34 -199 1 -226 46 -17 29 -128 100
-156 100 -16 0 -17 -312 -17 -4495 l0 -4495 19200 0 19200 0 0 4124 0 4124
-122 116 c-74 70 -130 116 -143 116 -43 0 -703 -104 -925 -146 l-235 -44 -430
0 -430 1 -32 -52 c-18 -29 -77 -98 -131 -153 l-99 -101 -16 -99 c-9 -55 -22
-105 -29 -112 -7 -7 -220 -158 -473 -335 -391 -274 -477 -330 -570 -371 -60
-27 -111 -51 -113 -53 -2 -2 4 -62 13 -133 l16 -130 -123 -244 -123 -243 -65
-26 c-36 -14 -95 -36 -132 -49 l-66 -24 -89 27 c-49 14 -96 29 -104 31 -9 4
-29 -18 -59 -69 -25 -41 -52 -75 -60 -75 -83 -2 -453 -50 -467 -61 -9 -8 -75
-65 -147 -126 -126 -109 -135 -119 -246 -285 l-115 -172 -128 -59 c-150 -71
-145 -72 -189 50 l-27 78 79 1000 c127 1591 278 3563 289 3770 6 105 14 218
17 252 l5 61 37 -15 c20 -8 38 -16 39 -17 2 -1 28 -121 59 -267 l57 -264 -22
-180 c-18 -144 -32 -213 -71 -345 -27 -91 -59 -210 -71 -264 l-22 -99 24 -18
c13 -10 28 -17 34 -16 5 2 20 47 34 100 14 53 28 97 31 97 6 0 90 -191 90
-204 0 -4 -28 -54 -61 -110 -55 -90 -66 -118 -105 -264 -24 -90 -44 -168 -44
-172 0 -10 78 -36 85 -28 3 3 26 76 51 164 36 122 55 170 82 208 42 57 33 70
87 -140 l39 -152 -43 -231 c-24 -127 -42 -233 -40 -236 3 -2 23 -7 44 -10 l40
-7 48 271 48 271 -100 327 c-55 181 -115 371 -134 423 l-34 95 18 70 c9 39 20
84 24 100 7 28 10 25 60 -75 30 -58 54 -115 54 -127 1 -12 -8 -62 -20 -112
l-21 -91 27 -46 c15 -25 28 -44 30 -42 1 2 22 70 45 152 l42 149 -72 161 -72
161 32 155 32 155 -126 645 -125 645 59 710 c54 652 81 990 113 1437 l12 167
-23 6 c-14 3 -26 4 -28 2 -2 -2 -17 -115 -34 -253 -17 -137 -33 -266 -36 -288
-10 -66 -24 -19 -24 85 0 53 -3 124 -6 158 l-7 62 -41 -3 -41 -3 -22 -470
c-12 -258 -22 -498 -22 -533 -1 -39 -5 -61 -11 -57 -6 4 -10 55 -10 119 0 62
-3 215 -7 339 l-6 227 -28 0 c-26 0 -28 -2 -33 -62 -3 -35 -13 -211 -22 -393
-9 -181 -17 -331 -19 -333 -1 -1 -19 65 -40 148 -20 82 -39 150 -41 150 -2 0
-15 -5 -29 -12 -23 -10 -25 -16 -21 -47 3 -20 20 -182 37 -361 l32 -325 -93
-1045 -92 -1045 -172 -175 c-95 -96 -225 -237 -290 -313 -115 -136 -120 -144
-217 -343 l-98 -203 101 -213 101 -213 -16 -144 -16 -144 -39 -41 -40 -41 -5
-147 c-4 -82 -3 -148 2 -148 24 0 71 24 75 38 3 10 15 69 26 132 19 103 26
121 66 177 43 63 44 65 72 246 l29 182 -48 249 -49 250 57 60 c140 148 393
407 393 401 0 -3 -32 -218 -70 -477 -90 -606 -238 -1732 -340 -2587 -44 -371
-88 -705 -96 -742 l-15 -68 -137 -119 c-75 -65 -142 -121 -149 -125 -10 -6
-427 146 -446 163 -4 4 0 16 10 28 l18 21 152 -59 c120 -47 159 -58 187 -53
20 3 36 9 36 12 0 4 -46 45 -102 91 -56 47 -152 132 -213 190 -60 58 -142 134
-181 170 -75 69 -115 120 -94 120 7 0 38 -7 70 -15 32 -8 86 -19 119 -23 l62
-9 -38 39 c-21 22 -68 56 -105 76 -75 41 -89 69 -55 109 18 21 19 23 2 75 -19
55 -38 78 -168 195 -55 49 -68 67 -65 86 3 25 4 25 96 -29 52 -30 97 -54 101
-54 4 0 15 6 25 13 16 12 -4 33 -201 212 -216 197 -219 200 -270 297 l-52 98
25 6 c16 4 40 0 60 -10 19 -9 39 -16 43 -16 11 0 31 55 31 86 0 13 4 26 10 29
5 3 70 -13 144 -36 120 -37 136 -40 154 -27 20 14 20 14 -11 55 -18 23 -45 47
-62 54 -16 7 -49 24 -72 38 -35 21 -43 32 -43 55 0 44 -55 123 -91 131 -32 7
-43 22 -52 73 -6 28 -4 33 11 28 60 -16 183 -38 189 -32 3 3 -4 29 -17 56 -23
49 -25 51 -94 71 -39 12 -74 23 -79 26 -4 2 6 15 21 28 21 18 46 25 100 30 51
5 76 13 88 26 17 19 16 21 -13 52 -17 17 -36 42 -42 54 -6 12 -24 24 -39 28
-40 8 -99 72 -106 115 -6 31 -3 37 26 56 37 23 39 45 10 104 -16 34 -31 42
-94 55 -16 3 -29 14 -33 28 -4 12 -30 47 -59 77 -113 120 -173 198 -196 252
-14 33 -32 60 -45 66 -37 17 -75 93 -75 151 0 46 -3 52 -30 66 -37 19 -60 62
-60 113 0 28 -7 45 -24 61 -20 19 -42 81 -28 81 2 0 37 -20 76 -45 56 -35 82
-45 114 -45 23 0 42 4 42 9 0 25 -25 68 -66 115 -42 47 -45 54 -41 94 4 38 1
45 -25 65 -21 17 -35 44 -52 96 -17 55 -30 78 -50 90 -15 9 -26 25 -26 37 0
13 -2 29 -5 36 -9 23 79 60 122 52 l35 -7 -16 31 c-9 17 -29 39 -46 49 -33 19
-121 123 -140 164 -7 14 -31 35 -54 47 -43 20 -43 20 -61 109 -20 95 -52 157
-89 175 -19 8 -25 21 -31 65 -10 84 -34 154 -64 193 -26 33 -66 130 -54 130
15 0 103 -86 143 -139 76 -101 163 -126 190 -55 16 42 12 51 -34 64 -54 15
-88 49 -116 115 -12 28 -35 71 -51 96 l-29 46 15 72 c22 105 13 142 -44 190
-25 21 -61 46 -79 57 -19 10 -43 37 -54 58 -18 35 -19 51 -13 130 6 86 5 95
-24 161 -21 50 -35 108 -47 198 -14 110 -21 136 -50 183 -67 111 -144 394
-144 528 l0 43 74 -73 c77 -75 116 -94 171 -80 46 12 31 42 -40 81 -107 60
-176 165 -249 376 -25 73 -36 125 -37 165 0 37 -10 86 -27 134 -25 69 -29 75
-57 78 -24 2 -35 -3 -54 -28 -18 -26 -26 -59 -42 -188 -23 -190 -42 -275 -81
-367 -43 -99 -90 -158 -150 -186 -48 -23 -49 -23 -25 -36 30 -15 86 -2 138 33
26 18 44 44 69 100 29 65 35 74 45 60 14 -18 -6 -150 -43 -286 -16 -60 -22
-119 -26 -295 -5 -150 -12 -244 -23 -294 -16 -68 -21 -77 -66 -115 -31 -25
-91 -102 -158 -201 -72 -106 -122 -169 -149 -188 -26 -19 -40 -36 -40 -50 0
-41 11 -45 68 -29 45 13 62 25 109 78 67 76 99 85 88 27 -3 -21 -17 -73 -31
-116 -24 -78 -80 -164 -186 -286 -33 -39 -38 -50 -38 -95 0 -66 13 -87 29 -49
11 25 108 117 168 158 23 16 23 16 23 -32 0 -26 -12 -91 -26 -143 -14 -52 -29
-129 -33 -170 -13 -108 -26 -136 -77 -166 -24 -14 -44 -27 -44 -28 0 -34 -28
-138 -52 -191 -34 -76 -132 -204 -210 -273 -47 -43 -48 -45 -48 -102 0 -110
34 -139 135 -115 31 7 66 22 79 34 16 15 35 21 69 21 45 0 47 -1 47 -29 0 -23
-8 -34 -35 -51 -30 -18 -33 -25 -25 -41 11 -19 20 -19 83 -2 66 18 -72 -177
-186 -262 -55 -41 -66 -45 -117 -45 l-56 0 -22 -45 c-12 -25 -22 -60 -22 -77
l0 -31 75 6 c66 5 84 11 143 47 79 50 141 107 225 209 56 69 62 73 70 53 16
-35 -19 -96 -116 -207 -59 -66 -104 -108 -135 -124 -77 -39 -108 -69 -153
-144 -24 -41 -92 -125 -157 -194 -110 -116 -117 -122 -163 -128 -27 -4 -49
-10 -49 -14 0 -16 53 -31 104 -31 41 0 57 5 72 21 10 12 46 35 79 50 73 35 77
29 45 -71 l-22 -67 -55 -13 c-124 -27 -161 -46 -246 -126 -45 -42 -83 -80 -85
-84 -3 -7 53 -33 95 -45 12 -3 35 1 52 9 17 9 35 16 41 16 23 0 8 -47 -28 -89
-30 -35 -53 -49 -112 -70 -81 -28 -95 -45 -56 -62 21 -10 48 -7 158 20 73 17
149 31 170 31 31 0 37 -4 47 -31 6 -18 11 -46 11 -64 0 -30 -4 -34 -61 -56
-45 -18 -71 -36 -101 -72 -37 -43 -40 -51 -31 -80 13 -47 43 -47 113 2 32 23
64 41 72 41 22 -1 44 -24 58 -60 11 -32 10 -40 -9 -77 -11 -23 -33 -50 -48
-61 -29 -21 -66 -103 -79 -174 l-6 -38 36 0 c32 0 36 3 36 25 0 34 25 82 63
123 37 39 65 42 72 7 3 -14 7 -36 10 -49 6 -32 -78 -212 -103 -220 -26 -9 -49
-33 -116 -124 -41 -57 -67 -83 -85 -86 -124 -24 -140 -29 -159 -49 -11 -12
-23 -32 -27 -45 -7 -23 -5 -23 37 -17 24 4 56 2 72 -5 l29 -11 -64 -30 c-35
-17 -88 -46 -116 -66 -43 -30 -53 -42 -53 -65 0 -40 22 -44 74 -14 81 47 178
28 129 -27 -10 -10 -43 -32 -74 -47 -30 -16 -72 -47 -92 -69 -35 -39 -40 -41
-96 -41 -56 0 -59 -1 -64 -27 -6 -34 1 -39 64 -46 45 -6 62 -1 175 50 69 30
126 54 128 52 2 -2 0 -28 -4 -56 -7 -44 -24 -74 -93 -170 -46 -65 -114 -163
-152 -218 -37 -55 -69 -101 -71 -103 -1 -2 -64 13 -140 33 -75 20 -144 37
-153 37 -49 0 -207 -25 -212 -34 -4 -6 -10 -36 -14 -65 -6 -52 -8 -54 -32 -48
-14 3 -39 9 -57 12 -19 3 -52 26 -86 58 -30 30 -83 70 -117 89 -57 33 -67 36
-140 35 -140 -1 -297 -17 -363 -38 -91 -29 -193 -121 -250 -229 -23 -42 -53
-90 -66 -106 -25 -28 -26 -28 -84 -17 -32 7 -82 20 -112 30 l-53 18 -125 -32
c-69 -18 -167 -50 -219 -70 -89 -36 -95 -41 -128 -94 -20 -31 -58 -86 -84
-122 -49 -66 -49 -67 -49 -146 l0 -79 -57 -56 -58 -56 -140 -16 c-77 -8 -181
-17 -230 -20 l-90 -5 -140 76 c-132 71 -145 76 -236 88 -96 13 -96 13 -140 59
-23 26 -48 53 -53 61 -6 7 -43 38 -83 68 -40 30 -103 83 -142 116 -65 59 -69
65 -76 116 -6 50 -15 65 -116 192 l-110 138 -97 44 c-53 25 -171 70 -262 101
l-165 57 -53 74 -53 74 -87 22 c-61 16 -117 23 -189 23 -63 0 -131 7 -180 19
-70 16 -102 17 -328 10 -261 -8 -597 -35 -847 -68 l-148 -19 -70 -65 c-39 -36
-108 -116 -153 -178 -119 -163 -138 -174 -365 -205 -428 -57 -426 -57 -616
-146 -212 -100 -289 -116 -570 -125 -186 -5 -190 -6 -260 -38 -57 -26 -238
-85 -260 -85 -3 0 -30 47 -61 105 l-57 105 -41 0 c-35 0 -48 6 -83 41 -42 41
-46 42 -157 60 l-115 17 -134 -28 c-74 -15 -153 -37 -175 -48 -22 -12 -66 -32
-97 -46 l-56 -25 0 23 c0 18 12 28 53 47 77 35 162 120 187 186 28 74 26 166
-5 280 -22 79 -25 109 -23 213 l3 122 -240 91 -240 92 -310 -1 c-170 0 -399
-4 -508 -8 l-197 -8 -108 -90 c-59 -50 -109 -92 -111 -94 -2 -1 0 -147 4 -324
l8 -320 66 -37 c36 -20 84 -46 105 -59 l39 -22 -84 -42 c-46 -23 -115 -65
-154 -94 -178 -132 -314 -187 -497 -202 l-87 -7 -63 50 c-88 69 -232 143 -373
193 -300 106 -439 149 -461 144 -21 -5 -23 -2 -28 58 -3 34 -15 317 -26 628
-44 1200 -64 1663 -130 3049 -25 509 -25 622 -5 661 15 29 19 30 80 30 63 0
65 1 65 25 0 23 -3 25 -48 25 -27 0 -51 3 -55 6 -3 4 0 19 9 35 12 24 21 29
54 29 39 0 60 13 40 25 -5 3 -10 25 -10 48 -1 47 -18 77 -45 77 -25 0 -55 -29
-48 -46 4 -11 -5 -14 -35 -14 -37 0 -41 3 -52 35 -13 41 -29 53 -41 34 -6 -10
-9 -11 -9 -1 0 6 -11 12 -25 12 -18 0 -25 5 -25 20 0 13 -5 18 -15 14 -11 -5
-15 -22 -15 -70 l0 -64 -49 0 c-47 0 -50 2 -53 28 -2 21 -9 28 -30 30 -34 4
-57 -33 -39 -65 6 -13 7 -23 0 -30 -6 -6 3 -16 26 -29 19 -10 35 -21 35 -24 0
-4 -24 -12 -52 -19 -29 -8 -91 -29 -138 -48 -110 -44 -361 -117 -475 -138 -49
-9 -225 -43 -390 -75 -165 -32 -368 -68 -450 -79 -83 -11 -157 -22 -165 -25
-30 -11 -375 -46 -685 -71 -453 -35 -841 -41 -1370 -21 -236 10 -430 18 -431
19 -4 6 -29 2332 -29 2737 0 91 4 207 8 258 5 58 4 92 -2 92 -9 0 -12 -20 -29
-190 l-8 -85 -8 120 c-4 66 -11 209 -15 317 -4 109 -10 201 -14 205 -5 4 -17
2 -27 -5 -17 -10 -20 -8 -24 21 -5 29 -46 625 -46 655 0 6 -7 12 -15 12 -11 0
-15 12 -15 50 0 37 -4 50 -15 50 -10 0 -15 -16 -17 -65 -4 -86 -22 -89 -25 -5
-6 152 -31 212 -31 73z m19724 -3128 c9 -14 23 -25 30 -25 13 0 34 -37 34 -60
0 -14 -38 -22 -70 -15 -35 8 -46 36 -36 90 8 41 20 44 42 10z m-15209 -775
c65 -28 64 -42 -17 -230 -40 -91 -103 -248 -140 -350 -107 -290 -214 -504
-435 -870 -173 -286 -234 -376 -395 -586 -207 -269 -244 -314 -255 -314 -5 0
-73 16 -150 36 -134 34 -257 52 -411 59 -85 5 -967 143 -1228 193 l-89 17 -1
65 -1 65 -90 59 c-106 70 -223 185 -255 253 -13 26 -35 82 -49 123 l-26 75
-50 8 c-27 4 -77 10 -110 14 -33 3 -69 12 -80 19 -12 8 -73 16 -158 20 -135 7
-137 7 -120 26 17 19 17 21 -6 39 -16 13 -31 17 -50 13 -25 -6 -25 -6 -6 9 11
9 26 17 33 17 22 0 10 60 -12 60 -6 0 -28 -11 -49 -25 -20 -14 -37 -23 -37
-19 0 4 18 35 40 70 67 106 46 132 -24 31 -22 -31 -41 -56 -42 -54 -2 1 0 175
3 386 l6 383 41 -6 c23 -3 332 -9 687 -12 687 -7 942 0 1331 36 513 49 1447
239 1953 398 69 21 129 19 192 -8z m-6507 -195 c113 -19 324 -48 470 -65 146
-17 328 -40 405 -51 161 -23 647 -62 975 -79 124 -7 226 -13 228 -15 1 -1 1
-177 0 -390 l-3 -388 -43 66 c-52 81 -142 162 -142 129 0 -5 16 -27 35 -49 55
-65 43 -98 -17 -48 -61 51 -65 21 -8 -55 46 -62 51 -79 14 -55 -30 20 -40 15
-25 -13 15 -29 14 -45 -4 -38 -14 5 -134 -6 -530 -49 -178 -19 -315 -19 -359
-1 -19 8 -65 17 -103 21 -67 8 -127 37 -162 79 -19 23 -25 20 -39 -19 -14 -36
-70 -87 -112 -100 -43 -13 -70 -37 -91 -76 -10 -21 -27 -43 -37 -48 -20 -11
-170 -3 -177 9 -3 4 0 22 6 39 16 46 5 61 -17 24 -21 -36 -32 -41 -40 -19 -3
8 17 45 45 83 28 38 51 80 51 92 0 21 -1 21 -29 7 -16 -9 -45 -38 -66 -66 -20
-27 -41 -48 -46 -44 -5 3 -9 21 -9 41 0 31 -8 44 -48 83 -38 36 -66 52 -142
79 -52 18 -141 51 -198 73 -117 45 -185 51 -265 24 -26 -9 -52 -14 -57 -11 -6
3 -10 24 -10 45 0 21 -9 55 -21 74 -13 23 -19 48 -17 72 3 35 10 43 95 103 50
36 117 89 150 117 l58 51 2 139 c1 77 4 170 8 208 l6 68 32 -6 c18 -4 124 -22
237 -41z m6584 -435 c3 -179 15 -622 26 -985 10 -363 22 -856 25 -1095 3 -239
13 -690 21 -1003 9 -312 13 -574 10 -583 -5 -14 -8 -14 -28 0 -12 9 -31 16
-42 16 -18 0 -18 -2 6 -27 34 -36 68 -94 68 -114 0 -19 -20 -29 -56 -29 -20 0
-46 33 -163 208 -174 262 -200 284 -389 351 -72 25 -135 51 -141 56 -11 11
-141 411 -141 434 0 8 16 42 35 77 19 34 35 67 35 74 0 6 -20 43 -45 81 -27
41 -45 81 -45 98 0 27 5 31 80 57 109 39 111 44 81 228 -12 78 -24 148 -27
156 -2 9 -24 26 -49 40 -39 21 -45 29 -51 67 l-6 42 -92 30 c-70 23 -314 81
-341 81 -2 0 31 44 74 98 262 327 435 575 573 822 218 388 349 668 468 1006
39 109 76 204 83 212 19 23 23 -35 31 -398z m17395 -677 c6 -21 24 -83 40
-138 l28 -100 -24 -13 c-13 -7 -29 -12 -35 -10 -7 3 -35 56 -63 118 l-52 115
41 32 c23 17 44 32 48 32 4 1 12 -16 17 -36z"/>
</g>
</svg>
