<?xml version="1.0" standalone="no"?>
<!DOCTYPE svg PUBLIC "-//W3C//DTD SVG 20010904//EN"
 "http://www.w3.org/TR/2001/REC-SVG-20010904/DTD/svg10.dtd">
<svg version="1.0" xmlns="http://www.w3.org/2000/svg"
 width="3840.000000pt" height="2400.000000pt" viewBox="0 0 3840.000000 2400.000000"
 preserveAspectRatio="xMidYMid meet">

<g transform="translate(0.000000,2400.000000) scale(0.100000,-0.100000)"
fill="#36293a" stroke="none">
<path d="M7935 15713 c-4 -10 -9 -109 -12 -220 -5 -161 -9 -203 -19 -203 -11
0 -14 27 -14 126 0 114 -2 125 -17 122 -17 -3 -18 -38 -25 -496 -3 -272 -9
-496 -12 -499 -13 -14 -18 12 -27 148 -6 79 -12 146 -15 148 -2 2 -4 -75 -4
-171 l0 -176 -40 -50 c-30 -39 -44 -49 -59 -45 -17 4 -24 -3 -41 -41 -11 -26
-26 -49 -33 -52 -8 -3 -26 -27 -41 -53 -14 -27 -42 -61 -62 -76 -52 -40 -63
-75 -53 -160 6 -43 5 -108 -1 -169 -9 -92 -8 -117 5 -104 3 3 12 41 21 84 11
57 14 107 9 179 -7 113 -4 120 67 149 27 12 37 23 42 46 3 20 10 29 17 24 19
-11 4 -150 -24 -239 -17 -51 -21 -73 -11 -60 27 36 84 254 84 319 0 16 8 30
23 37 12 6 39 27 60 47 l37 36 0 -131 c0 -77 -4 -134 -10 -138 -5 -3 -10 -38
-10 -77 0 -56 -4 -76 -18 -92 -11 -12 -31 -54 -45 -94 -30 -82 -90 -168 -137
-195 -39 -23 -74 -76 -99 -150 -11 -32 -29 -70 -39 -85 -28 -39 -37 -72 -20
-72 25 0 47 24 82 90 l35 65 12 -30 c6 -17 13 -61 16 -100 l4 -70 -61 -40
c-50 -33 -65 -51 -89 -100 -31 -63 -47 -135 -30 -135 6 0 16 15 24 33 7 18 23
41 34 51 12 11 21 29 21 42 0 15 16 34 52 61 77 56 75 55 80 28 4 -17 -7 -45
-33 -87 -43 -71 -50 -121 -23 -188 18 -46 38 -54 30 -12 -19 96 -19 102 6 140
14 21 35 56 46 79 21 39 21 44 6 114 -8 40 -13 82 -10 93 3 11 1 25 -3 30 -5
6 -14 35 -20 64 l-11 54 44 50 c25 27 71 83 102 124 31 41 57 74 58 72 1 -2
-3 -84 -10 -184 -12 -179 -12 -181 -44 -225 -31 -44 -32 -45 -28 -146 3 -96 5
-103 32 -132 l29 -30 -17 -173 c-9 -95 -25 -301 -36 -458 -11 -157 -22 -305
-26 -329 l-6 -43 -49 4 c-44 5 -56 12 -112 64 -34 33 -81 68 -104 78 -44 19
-52 33 -31 54 8 8 0 14 -35 24 -51 13 -56 22 -31 49 23 25 9 39 -37 39 -45 0
-53 17 -11 25 46 10 57 21 58 56 0 19 4 42 8 52 12 25 -11 22 -51 -9 -41 -31
-82 -31 -45 1 17 15 22 30 22 67 l0 48 -64 0 c-56 0 -66 3 -71 20 -5 15 -15
20 -40 20 -19 0 -37 5 -40 10 -3 6 -23 10 -43 10 -25 1 -47 9 -67 26 l-30 26
75 -6 c92 -7 208 9 232 31 10 9 16 18 13 21 -3 3 -56 11 -117 18 -80 9 -141
23 -208 47 -52 19 -88 37 -80 40 8 3 44 7 80 10 77 5 115 22 170 78 38 39 51
69 30 69 -6 0 -37 -13 -70 -30 -67 -34 -80 -36 -80 -15 0 8 16 22 35 31 49 23
97 114 60 114 -8 0 -15 -4 -15 -8 0 -18 -93 -72 -147 -86 -51 -13 -56 -13 -38
0 11 8 43 22 71 30 58 16 108 62 98 87 -8 22 -15 21 -59 -4 -38 -23 -34 -23
-183 0 -29 4 -60 15 -70 24 -15 16 -14 17 20 17 58 0 68 8 68 50 l0 38 -52 7
c-32 4 -62 15 -75 28 -32 29 -29 41 10 33 102 -22 144 -24 197 -12 69 16 78
38 23 61 -21 9 -67 20 -103 23 -65 7 -82 22 -38 33 l23 6 -25 7 c-16 5 -37 27
-58 63 l-33 56 43 -6 c152 -21 174 -21 196 3 27 29 20 40 -26 40 -54 0 -169
26 -198 44 -34 23 -30 37 6 24 31 -10 144 4 183 24 16 8 25 58 10 58 -61 0
-197 27 -234 46 -49 24 -153 114 -170 146 -9 17 -4 16 43 -8 111 -57 182 -62
230 -16 34 31 28 42 -22 42 -30 0 -43 6 -64 31 -14 17 -26 34 -26 39 0 7 -90
84 -126 107 -11 6 38 -12 108 -41 108 -45 133 -52 170 -47 30 4 44 11 46 24 2
9 -3 17 -10 17 -8 0 -29 11 -48 25 -19 14 -44 25 -57 25 -13 0 -45 11 -71 25
-26 14 -52 25 -58 25 -18 0 -199 193 -185 198 7 2 27 -10 45 -27 18 -17 46
-35 62 -39 30 -9 76 -2 75 11 -1 4 -1 18 -1 31 0 17 -10 31 -30 43 -25 14 -30
24 -30 55 0 25 5 38 14 38 7 0 24 8 37 19 13 10 33 21 44 23 17 4 14 7 -15 20
-19 9 -55 23 -80 32 -25 9 -56 26 -70 37 l-25 21 34 -6 c19 -3 48 -13 64 -21
44 -22 51 -19 29 13 -35 51 -36 56 -3 33 18 -13 35 -20 38 -17 8 8 -53 73 -92
97 l-30 19 30 -6 c36 -7 88 11 83 29 -3 6 -22 18 -44 25 -21 7 -48 21 -59 31
-11 11 -39 28 -62 39 -49 23 -123 82 -123 99 0 7 20 0 48 -17 26 -16 62 -33
80 -36 27 -5 32 -4 32 12 0 25 -8 35 -50 64 -19 14 -52 40 -72 59 -21 18 -47
40 -58 48 -27 19 -26 37 4 29 12 -3 26 -3 29 0 3 3 -25 52 -63 107 -75 114
-111 180 -147 277 -34 91 -75 170 -88 170 -16 0 -32 -60 -25 -95 7 -34 -5
-111 -26 -170 -7 -22 -14 -51 -14 -64 0 -13 -11 -39 -25 -57 -31 -40 -37 -137
-9 -148 30 -11 44 -6 44 17 1 67 36 90 51 33 7 -24 2 -42 -24 -90 -32 -61 -99
-139 -127 -148 -12 -5 -13 -9 -3 -26 7 -12 10 -28 7 -37 -5 -13 -2 -15 22 -9
16 4 41 16 57 26 22 16 27 17 27 4 0 -17 -53 -52 -95 -62 -43 -10 -105 -46
-105 -60 0 -48 161 -43 205 6 32 35 36 22 10 -30 -14 -27 -25 -58 -25 -68 0
-10 -18 -38 -40 -61 -22 -23 -43 -53 -46 -66 -9 -35 9 -80 31 -80 21 0 31 -20
16 -30 -6 -3 -11 -17 -11 -29 0 -13 -6 -29 -14 -35 -8 -7 -17 -24 -21 -39 -3
-15 -18 -44 -32 -64 -35 -52 -28 -72 26 -76 68 -5 89 4 149 66 34 36 57 52 59
44 9 -24 -19 -71 -53 -91 -19 -11 -34 -25 -34 -30 0 -11 -45 -41 -154 -101
-59 -33 -82 -51 -84 -67 -2 -13 1 -23 7 -23 6 0 11 -9 11 -19 0 -11 4 -23 10
-26 21 -13 107 -17 146 -6 53 14 131 66 149 100 l14 26 1 -32 c0 -20 -9 -41
-22 -56 -23 -25 -103 -57 -142 -57 -17 0 -154 -39 -165 -47 -8 -6 52 -63 66
-63 23 0 14 -19 -16 -34 -47 -25 -46 -42 5 -55 41 -10 44 -13 34 -32 -6 -11
-18 -23 -26 -26 -18 -7 -18 -29 0 -36 7 -3 33 -1 56 4 24 5 47 8 53 6 10 -3
-100 -59 -143 -73 -28 -8 -174 -7 -205 2 -18 6 -17 3 5 -21 41 -45 72 -55 165
-55 47 0 85 -4 85 -8 0 -4 -15 -25 -34 -45 -22 -25 -42 -37 -60 -37 -36 0 -34
-26 4 -45 38 -19 67 -18 109 4 27 14 40 16 65 8 17 -6 37 -12 44 -13 26 -7 7
-36 -33 -51 -87 -32 -177 -45 -233 -33 -30 7 -56 9 -59 6 -7 -6 75 -45 96 -46
11 0 11 -3 0 -16 -11 -13 -25 -15 -72 -9 -52 5 -58 4 -50 -10 6 -9 19 -22 30
-28 11 -7 32 -20 45 -30 17 -11 53 -20 107 -24 77 -6 81 -7 81 -30 l0 -24
-107 7 c-60 4 -118 11 -131 15 -33 13 -65 -6 -53 -30 8 -15 5 -20 -15 -30 -39
-17 -26 -42 33 -62 29 -10 63 -25 75 -33 22 -16 21 -16 -23 -16 -39 0 -47 -4
-62 -30 -17 -28 -22 -30 -77 -30 l-58 0 -50 63 c-59 75 -72 98 -72 130 0 21
-42 56 -256 216 l-256 191 -81 0 c-75 0 -86 -3 -163 -42 l-82 -42 -98 33 c-55
18 -209 54 -344 81 l-245 48 -270 1 c-148 1 -295 -3 -325 -9 -30 -5 -130 -19
-222 -29 -144 -17 -173 -24 -206 -46 l-39 -26 -23 -155 -24 -156 -68 -98 c-66
-97 -67 -99 -55 -134 9 -25 33 -51 87 -91 41 -31 74 -60 73 -65 -1 -4 -29 -51
-63 -104 -33 -54 -60 -102 -60 -107 0 -6 13 -30 29 -53 l30 -42 -42 -158 -42
-157 -164 -67 c-155 -64 -164 -69 -187 -109 -18 -30 -37 -46 -70 -60 -41 -16
-50 -27 -106 -125 -51 -89 -69 -111 -102 -129 l-41 -21 -125 19 -125 19 -160
-41 -160 -42 -171 -111 c-153 -99 -183 -114 -286 -146 -66 -21 -223 -55 -372
-82 l-258 -45 -68 -45 c-55 -37 -74 -57 -100 -106 -18 -33 -45 -74 -61 -93
l-29 -33 0 -5466 0 -5466 19200 0 19200 0 0 5214 0 5213 -74 62 c-41 33 -83
61 -94 61 -11 0 -27 11 -36 25 -9 14 -38 36 -64 49 l-48 24 -17 109 c-9 59
-17 111 -17 115 0 4 33 8 72 10 l73 3 23 41 c12 23 30 78 39 123 13 67 14 88
3 125 -7 25 -18 47 -25 49 -6 3 -18 33 -25 66 l-13 61 -147 104 c-80 57 -166
127 -191 155 l-44 51 -261 36 -261 35 -61 -63 -60 -62 -183 32 -182 32 -51
-35 c-118 -83 -162 -123 -195 -178 -23 -39 -47 -65 -75 -81 -38 -21 -48 -22
-144 -16 -57 4 -107 11 -111 16 -5 5 -19 44 -31 86 l-23 77 -342 176 -343 175
-98 0 -97 0 -56 -42 -55 -42 -204 17 c-113 9 -206 18 -208 20 -3 2 -41 89 -87
193 l-82 188 -130 42 c-72 23 -256 83 -410 133 l-280 90 -71 -9 c-70 -9 -76
-12 -224 -118 l-153 -108 -86 13 c-47 7 -122 13 -166 13 -68 0 -94 5 -169 35
-66 26 -105 35 -148 35 -34 0 -80 8 -110 20 -29 11 -72 20 -94 20 -36 0 -53 8
-113 56 -39 30 -93 62 -119 71 -64 22 -152 106 -230 221 -34 50 -81 105 -103
121 l-40 30 -52 -16 c-29 -8 -56 -18 -61 -20 -5 -3 -54 -9 -110 -13 -98 -8
-103 -7 -168 22 -53 24 -76 42 -116 92 -34 43 -121 116 -290 246 -269 206
-242 173 -257 322 l-6 56 -142 85 c-141 84 -144 86 -235 96 -72 8 -99 15 -125
34 -24 19 -50 26 -110 32 -52 4 -127 23 -225 56 -80 27 -157 49 -169 49 -21 0
-23 4 -18 38 3 20 7 52 9 69 3 22 -2 40 -15 55 l-18 23 -1 -56 c0 -33 -6 -63
-15 -75 -13 -18 -14 -16 -15 22 0 44 -25 91 -34 64 -3 -8 -7 -24 -9 -35 -4
-21 -8 -10 -22 58 -6 29 -46 89 -62 95 -19 6 -16 -23 8 -77 13 -30 19 -64 17
-90 l-3 -42 -35 29 c-78 63 -102 45 -35 -27 51 -54 46 -76 -9 -42 -44 28 -71
26 -102 -5 -24 -23 -31 -25 -82 -18 -30 4 -100 26 -155 50 -55 24 -107 44
-116 44 -9 0 -66 -12 -128 -27 l-111 -27 -63 19 c-34 11 -147 66 -251 122
-150 82 -197 103 -228 103 -27 0 -112 28 -253 84 -187 73 -222 84 -298 90 -65
5 -150 26 -350 86 -145 44 -269 80 -275 80 -7 0 -54 16 -106 36 -120 46 -347
98 -538 124 -191 25 -260 42 -555 139 -814 268 -1214 354 -1429 308 -74 -16
-86 -26 -145 -117 -27 -42 -100 -243 -122 -337 -6 -27 -16 -44 -29 -48 -16 -5
-20 -15 -20 -46 0 -35 11 -54 93 -157 139 -174 145 -183 152 -232 5 -38 2 -55
-24 -110 -43 -90 -42 -133 6 -194 l37 -48 -37 -68 c-20 -37 -37 -81 -37 -98 0
-19 -27 -72 -80 -157 -44 -70 -80 -137 -80 -149 0 -11 12 -95 26 -186 l26
-165 99 -100 c92 -93 99 -103 99 -140 0 -39 3 -42 127 -140 117 -93 292 -271
314 -320 19 -41 151 -564 169 -668 29 -162 34 -168 329 -358 134 -86 249 -163
256 -170 11 -11 105 -357 105 -384 0 -3 -22 -5 -48 -5 -46 0 -58 -6 -211 -116
-143 -102 -164 -121 -187 -167 -25 -48 -26 -58 -20 -136 6 -76 4 -86 -14 -106
-19 -20 -19 -24 -5 -64 8 -23 24 -55 35 -71 11 -15 20 -32 20 -38 0 -5 -32
-13 -71 -16 -86 -9 -115 -19 -151 -54 -25 -23 -28 -33 -28 -89 l0 -63 -118
-133 c-91 -103 -200 -234 -228 -275 -2 -2 -89 -26 -194 -52 -106 -27 -196 -52
-199 -57 -4 -4 -59 -75 -122 -157 l-114 -148 -200 6 c-110 3 -328 9 -485 12
l-285 6 -115 -142 c-136 -167 -141 -181 -115 -310 17 -85 17 -86 -5 -123 -21
-35 -22 -48 -18 -147 2 -61 1 -110 -4 -110 -5 0 -22 7 -38 15 -25 13 -38 13
-106 0 -89 -17 -121 -40 -129 -94 -14 -83 -5 -77 -120 -96 l-105 -18 -67 -126
c-37 -69 -78 -160 -93 -201 -18 -52 -51 -111 -107 -191 l-82 -116 -21 -149
c-18 -130 -20 -159 -9 -230 l12 -81 -111 -189 c-61 -104 -139 -250 -172 -324
-34 -74 -65 -139 -70 -143 -11 -12 -193 -42 -375 -63 -152 -17 -162 -19 -206
-51 -25 -18 -84 -79 -132 -135 -47 -57 -121 -140 -164 -186 l-78 -83 -140 -20
c-77 -11 -215 -28 -306 -39 -153 -18 -241 -39 -300 -71 -13 -6 -56 -36 -95
-65 l-73 -54 -175 -20 c-98 -11 -241 -20 -322 -20 l-146 0 -136 -54 c-133 -53
-139 -54 -197 -46 -33 5 -61 13 -62 17 -2 4 -21 40 -43 79 -31 57 -45 72 -68
77 -16 3 -48 22 -72 42 -60 50 -86 62 -155 70 -84 10 -163 33 -167 50 -3 12
-155 129 -179 137 -7 2 -7 24 -1 63 8 50 6 75 -14 158 -13 54 -24 128 -24 165
0 37 -3 90 -6 119 l-7 51 -151 71 c-84 39 -162 71 -175 71 -12 0 -44 9 -71 21
-48 20 -49 23 -60 78 -6 31 -24 93 -39 138 -16 46 -27 92 -24 103 3 11 -2 31
-11 45 -9 13 -18 46 -21 71 -4 44 -3 46 13 32 16 -14 164 -82 205 -95 13 -4
17 0 17 18 0 18 -16 34 -60 64 -32 21 -57 41 -55 44 3 2 32 -15 66 -38 64 -42
79 -48 79 -31 0 6 29 10 68 10 80 0 202 25 213 42 10 16 -9 23 -91 32 -35 4
-73 12 -83 18 -19 10 -18 11 9 34 22 17 42 23 80 24 55 0 136 24 153 44 9 10
-7 14 -77 19 -52 4 -127 19 -187 37 -55 16 -128 37 -161 46 -53 14 -68 23
-107 68 -40 47 -45 57 -49 114 -5 66 -1 74 20 42 7 -11 22 -20 35 -20 21 0 49
-12 93 -40 29 -18 94 -5 94 18 0 10 -12 25 -27 34 -34 20 -99 86 -92 93 3 3
35 -13 72 -35 76 -46 148 -66 200 -56 58 11 72 67 14 58 -30 -5 -87 18 -182
75 -113 69 -163 116 -171 162 -4 20 -18 58 -30 86 -25 52 -31 91 -14 80 5 -3
42 -51 80 -106 71 -99 97 -124 135 -131 32 -5 30 30 -5 73 -40 50 -30 50 28
-2 71 -62 177 -109 246 -109 31 0 56 3 56 8 -1 4 -24 18 -52 32 l-52 25 93 7
c51 3 95 9 99 13 9 8 -18 25 -42 25 -30 0 -197 60 -236 85 -19 12 -43 31 -53
42 -17 20 -17 21 28 33 55 15 68 30 26 30 -114 0 -317 160 -337 267 -3 18 -4
37 -2 44 2 6 38 -18 79 -53 42 -36 89 -73 105 -84 53 -37 251 -84 352 -84 50
0 53 2 50 23 -4 30 -79 66 -143 68 -50 1 -50 1 -17 12 26 8 40 7 65 -5 24 -11
46 -14 80 -8 84 12 76 32 -20 50 -38 7 -73 19 -80 27 -9 12 -25 14 -62 11 -47
-5 -49 -4 -40 14 15 28 35 32 80 18 47 -16 93 -1 87 28 -3 15 -18 17 -163 14
l-160 -4 -65 50 c-36 27 -87 72 -113 99 l-48 49 3 140 3 139 67 -67 c48 -50
73 -68 92 -68 l26 0 -19 38 c-10 21 -42 59 -70 85 -32 30 -51 56 -51 70 1 20
4 18 36 -16 20 -21 66 -58 103 -82 l67 -44 155 9 c186 10 213 17 217 53 3 25
2 26 -30 19 -31 -7 -73 -7 -143 0 -38 4 -103 27 -135 47 -23 15 -20 16 82 21
98 5 108 8 126 30 l20 25 -71 2 c-150 5 -237 22 -319 66 -63 33 -84 50 -112
93 -35 52 -35 54 -27 119 4 36 4 92 -1 123 -8 61 -2 112 13 112 5 0 43 -28 85
-62 77 -65 118 -86 169 -87 l30 0 -35 29 c-19 17 -32 30 -29 30 4 0 52 -9 109
-21 92 -19 104 -19 118 -5 18 17 34 9 -171 90 -108 43 -150 65 -200 107 l-62
52 4 166 c2 91 5 168 7 170 3 3 53 -45 112 -107 60 -63 122 -118 142 -126 19
-9 49 -24 65 -36 17 -11 46 -20 68 -20 36 0 37 1 24 20 -8 11 -48 46 -88 76
-80 60 -81 58 21 37 21 -4 20 -2 -10 18 -19 12 -62 35 -95 50 -33 16 -80 47
-105 70 l-45 42 65 -36 c44 -23 85 -37 125 -42 l60 -6 -43 25 c-94 56 -166
136 -241 268 -27 49 -32 66 -29 112 l3 55 57 -50 c32 -28 65 -49 75 -47 13 2
2 20 -45 73 -34 38 -62 73 -62 77 0 22 31 3 70 -43 54 -64 123 -109 167 -109
26 0 33 4 33 20 0 15 -7 20 -29 20 -48 0 -142 90 -208 200 -41 68 -83 159 -83
181 l0 23 28 -26 c15 -14 41 -33 58 -41 17 -9 36 -23 43 -31 18 -22 48 -20 61
4 9 16 8 20 -4 20 -9 0 -25 13 -37 29 -12 17 -34 35 -49 41 -46 19 -115 109
-125 162 -8 40 -34 71 -51 60 -14 -9 -34 -68 -34 -100 0 -23 -61 -108 -102
-142 -19 -15 -19 -16 1 -34 20 -18 22 -18 61 8 22 14 43 26 47 26 5 0 7 -26 5
-57 l-4 -58 -146 -72 c-81 -39 -156 -75 -167 -79 -14 -5 6 -11 63 -17 76 -9
84 -8 105 10 20 18 87 48 87 38 0 -2 -31 -27 -70 -56 -38 -28 -70 -54 -70 -57
0 -15 88 13 135 43 29 19 57 35 60 35 8 0 -3 -100 -16 -150 -9 -39 -84 -118
-136 -144 -18 -9 -59 -16 -95 -17 -35 0 -85 -6 -113 -13 l-50 -11 50 -25 c39
-19 64 -24 120 -23 64 1 68 0 45 -13 -15 -8 -57 -13 -108 -14 -53 0 -93 -5
-111 -15 -16 -8 -48 -17 -72 -20 -127 -18 -118 -29 34 -43 160 -15 222 -8 325
40 46 21 90 38 96 38 10 0 10 -16 4 -67 -11 -80 -15 -89 -89 -185 -82 -106
-127 -139 -213 -154 -95 -17 -179 -17 -221 0 -34 14 -45 12 -45 -9 0 -11 50
-32 108 -46 39 -8 237 14 307 36 69 21 74 19 34 -11 -72 -54 -174 -94 -256
-102 l-78 -8 53 -12 c82 -18 219 -15 267 7 22 10 53 21 69 25 l29 7 -6 -92
c-4 -51 -7 -116 -7 -145 0 -46 -3 -54 -22 -59 -13 -4 -33 -16 -44 -27 -28 -25
-211 -48 -247 -30 -12 6 -48 13 -79 15 -41 4 -67 13 -92 32 -36 27 -53 21 -41
-15 5 -17 61 -66 121 -108 35 -24 -72 -7 -126 20 l-50 25 0 -22 c0 -54 73 -81
246 -92 l107 -6 -36 -18 c-113 -58 -295 -76 -402 -39 -75 26 -99 27 -84 2 13
-21 151 -76 231 -92 60 -12 124 -5 238 26 70 19 220 95 220 111 0 15 40 44 52
37 18 -11 7 -53 -21 -80 -115 -113 -128 -121 -226 -149 -33 -10 -69 -24 -80
-31 -12 -9 -47 -14 -91 -14 -67 0 -72 -1 -67 -20 5 -19 0 -20 -62 -20 -49 0
-66 -3 -63 -12 3 -7 15 -15 29 -16 13 -2 50 -15 81 -28 34 -14 77 -24 106 -24
33 0 54 -5 63 -16 11 -13 31 -15 120 -12 112 3 122 -4 29 -22 -30 -6 -66 -16
-80 -22 -39 -17 -173 -31 -302 -31 -96 0 -121 3 -136 16 -24 22 -32 21 -32 -2
0 -17 31 -38 80 -53 8 -3 -5 -9 -30 -14 -63 -13 -65 -37 -3 -55 34 -10 102
-14 228 -13 191 1 295 18 386 65 48 24 49 24 49 -5 0 -19 -9 -27 -42 -41 -24
-9 -61 -34 -83 -54 -60 -56 -262 -121 -402 -130 -57 -4 -105 -10 -109 -13 -3
-4 9 -14 26 -23 59 -30 124 -45 203 -45 54 0 76 -3 71 -11 -10 -17 -85 -49
-115 -49 -15 0 -37 -9 -50 -20 l-24 -19 86 -1 c98 0 180 21 222 56 18 15 41
24 63 24 20 0 45 5 56 11 30 16 45 -4 16 -23 -13 -9 -50 -38 -83 -66 -63 -54
-187 -121 -270 -146 -27 -8 -85 -18 -127 -21 -84 -7 -98 -17 -45 -33 82 -25
197 -19 352 18 57 14 58 13 37 -17 -36 -53 -36 -56 -1 -38 19 10 57 40 85 67
71 69 80 46 18 -45 -42 -62 -59 -77 -119 -109 -38 -20 -111 -51 -162 -68 -51
-18 -96 -37 -100 -43 -4 -7 34 -8 121 -5 119 6 131 8 202 42 42 20 89 45 105
57 l29 20 0 -46 c0 -63 -22 -96 -87 -134 -41 -23 -75 -33 -133 -40 -72 -8
-204 -1 -276 14 -38 8 -82 -11 -65 -28 6 -6 61 -23 123 -38 91 -23 136 -28
234 -29 66 0 124 -3 127 -7 4 -3 -17 -15 -45 -25 -39 -13 -77 -18 -148 -16
-61 1 -103 -3 -118 -11 -20 -10 -45 -8 -159 14 -104 21 -138 24 -147 15 -8 -9
-6 -15 9 -24 10 -6 33 -26 49 -43 16 -18 37 -33 46 -33 9 0 25 -7 36 -15 10
-8 29 -15 42 -15 12 0 22 -4 22 -10 0 -10 -17 -15 -88 -25 -30 -4 -50 -1 -65
10 -31 22 -37 19 -30 -15 3 -19 1 -30 -6 -30 -26 0 -181 85 -176 97 3 8 -4 13
-19 13 -48 0 -77 24 -38 32 9 2 -17 14 -58 26 -41 12 -86 32 -100 43 l-25 21
75 -4 c41 -3 91 -2 110 1 31 6 34 9 36 43 3 36 1 38 -39 49 -89 24 -106 30
-117 44 -9 11 -1 13 52 13 64 -1 108 13 108 35 0 8 -14 11 -46 8 -48 -3 -134
17 -208 50 -46 20 -75 46 -40 36 80 -24 149 -18 157 13 4 15 -1 19 -27 22 -27
3 -31 7 -34 36 -2 21 -9 32 -19 32 -8 0 -27 8 -41 19 -15 10 -37 21 -48 25
-26 8 -60 44 -51 53 4 3 35 -8 68 -25 34 -18 68 -32 75 -32 21 0 17 18 -8 31
-21 11 -21 12 -3 25 10 8 31 14 47 14 16 0 28 5 28 13 0 27 -21 41 -72 48
-109 14 -134 23 -184 60 -59 43 -74 76 -40 85 12 3 34 0 50 -5 59 -23 176 -8
176 23 0 14 -9 16 -102 34 -29 5 -57 18 -70 33 -13 13 -36 34 -52 45 -43 31
-24 49 21 19 20 -14 40 -25 44 -25 14 0 10 20 -5 26 -8 3 -17 12 -20 19 -4 11
12 13 85 8 l91 -6 -4 29 c-2 20 -9 30 -23 32 -87 13 -125 25 -125 38 0 9 12
14 38 15 l37 2 -40 7 -40 6 30 9 c29 9 27 10 -24 16 -42 6 -61 14 -90 42 -20
19 -45 37 -56 39 -13 2 -21 12 -23 31 -3 23 0 27 23 27 14 0 35 -5 46 -10 12
-7 43 -8 80 -4 l60 7 -61 33 c-33 19 -69 34 -80 34 -11 0 -25 9 -32 21 -7 11
-34 35 -59 54 -27 19 -51 46 -57 65 l-11 31 46 -40 c53 -47 67 -51 61 -17 -5
23 -3 24 26 19 40 -7 33 -1 -79 75 -49 34 -115 86 -145 117 l-55 55 33 -6 c21
-4 32 -3 32 5 0 6 -5 11 -12 11 -6 0 -9 3 -6 6 4 3 20 -2 37 -11 55 -28 33 4
-26 37 -31 17 -51 34 -45 36 7 2 33 -10 59 -27 55 -37 59 -37 67 -8 9 33 8 37
-9 37 -19 0 -145 125 -145 143 0 16 46 12 68 -6 7 -5 15 -7 18 -4 6 6 -66 76
-135 133 -45 37 -91 111 -91 145 0 15 -6 29 -14 32 -7 3 -31 39 -52 81 -31 60
-44 76 -61 76 -20 0 -22 -3 -12 -27 6 -16 13 -75 16 -133 5 -90 3 -107 -11
-119 -10 -8 -16 -29 -16 -53 0 -33 -6 -46 -36 -73 l-36 -33 28 -4 c20 -3 37 4
56 21 15 13 30 22 32 20 3 -3 -22 -45 -54 -94 -66 -97 -70 -125 -9 -55 21 25
39 41 40 35 6 -43 -32 -106 -105 -173 -25 -23 -46 -45 -46 -47 0 -16 31 0 60
30 18 19 36 32 39 30 2 -3 -11 -22 -30 -41 -20 -22 -26 -32 -14 -26 11 6 31
22 44 36 14 14 30 26 38 26 18 0 17 -70 -2 -94 -8 -11 -15 -27 -15 -35 0 -9
-11 -37 -25 -63 -14 -26 -25 -54 -25 -63 0 -23 -58 -155 -81 -184 -10 -13 -16
-27 -13 -32 8 -13 99 36 123 67 17 22 22 24 27 10 3 -9 0 -26 -8 -39 -8 -12
-24 -51 -36 -87 -37 -117 -49 -137 -94 -164 -38 -23 -40 -26 -18 -26 23 -1 24
-2 7 -14 -12 -9 -14 -16 -7 -21 6 -3 38 12 72 35 33 22 63 38 66 36 2 -3 -9
-22 -25 -43 -17 -21 -33 -54 -37 -74 -4 -21 -13 -43 -22 -50 -9 -7 -24 -29
-34 -49 -10 -19 -30 -42 -44 -50 -35 -18 -33 -34 7 -48 47 -17 56 -15 86 14
41 40 113 95 118 90 6 -6 -54 -140 -81 -181 -53 -81 -95 -129 -138 -157 -62
-39 -53 -52 28 -44 72 7 91 -9 23 -20 -22 -4 -49 -16 -59 -27 -19 -19 -19 -19
-64 3 -59 28 -109 86 -103 119 3 14 1 35 -4 48 -8 21 -15 23 -82 23 l-74 0 0
29 c0 36 -53 91 -88 91 -13 0 -35 14 -52 33 -25 29 -33 54 -57 182 -34 176
-89 314 -128 317 -42 3 -53 4 -86 12 -28 7 -33 12 -30 34 3 26 6 27 51 24 l49
-3 -7 43 c-7 45 -44 87 -77 88 -10 0 -18 7 -18 15 0 11 12 15 45 15 41 0 45 2
45 25 0 23 -4 25 -45 25 -25 0 -45 4 -45 9 0 14 28 21 60 14 l30 -5 0 49 c0
51 -12 73 -41 73 -10 0 -21 12 -27 29 -8 24 -7 32 11 51 l22 22 -25 -7 c-24
-8 -23 -7 8 29 47 54 39 63 -16 17 -33 -28 -58 -41 -78 -41 -39 0 -105 39
-124 73 -13 24 -13 29 0 37 8 6 28 7 43 4 26 -5 67 16 67 36 0 3 -19 17 -42
30 -57 31 -84 55 -124 115 -19 28 -45 65 -59 84 -33 45 -32 55 8 47 91 -19
102 -19 90 -4 -7 8 -31 21 -52 28 -22 7 -53 26 -68 43 -23 25 -24 29 -8 23 24
-9 136 -36 149 -36 17 0 -28 41 -87 81 -69 46 -133 114 -142 152 -11 43 13 33
80 -32 41 -40 75 -64 108 -74 46 -15 47 -15 37 3 -6 11 -52 56 -103 101 -50
44 -98 93 -106 107 l-14 26 28 -18 28 -19 -24 34 -24 34 38 -29 c64 -49 53
-21 -22 60 -72 77 -118 158 -141 245 -34 132 -30 123 -48 105 -14 -13 -18 -44
-23 -149 -7 -150 -19 -184 -96 -265 -33 -36 -40 -48 -29 -54 19 -10 56 4 80
31 11 11 23 21 28 21 13 0 9 -59 -7 -120 -8 -30 -15 -69 -15 -86 0 -17 -11
-53 -25 -80 -29 -55 -44 -134 -27 -134 6 0 18 13 26 28 8 16 21 34 30 41 13
11 16 7 22 -23 3 -21 12 -36 20 -36 19 0 18 -34 -2 -51 -9 -7 -29 -39 -45 -71
-16 -32 -35 -58 -43 -58 -7 0 -20 -8 -27 -17 -13 -15 -11 -16 20 -10 19 4 43
15 53 24 17 15 18 15 18 -3 0 -11 -5 -25 -11 -31 -8 -8 -7 -13 1 -18 6 -4 17
-2 23 4 17 17 27 13 27 -12 0 -26 -33 -61 -67 -72 -13 -3 -23 -14 -23 -24 0
-10 10 -26 23 -34 l22 -16 -25 -21 c-14 -12 -39 -28 -57 -36 -63 -27 -65 -79
-3 -68 17 3 35 -4 55 -21 l30 -26 -37 -33 c-22 -19 -38 -42 -38 -55 0 -12 -6
-24 -14 -27 -8 -3 -17 -15 -20 -28 -3 -13 -24 -31 -53 -46 l-48 -25 48 -3 c43
-3 48 -5 45 -25 -2 -17 -11 -23 -43 -27 -36 -4 -40 -8 -43 -35 -2 -16 -15 -43
-29 -60 l-26 -30 31 -3 c18 -2 32 -7 32 -12 0 -13 -66 -40 -96 -40 -29 0 -31
-21 -4 -45 15 -14 29 -16 66 -11 34 4 45 3 42 -7 -3 -6 -22 -14 -43 -17 -53
-7 -59 -30 -8 -30 58 0 68 -12 37 -41 -14 -13 -43 -53 -64 -89 -21 -36 -49
-75 -62 -87 l-24 -22 -42 49 c-31 35 -50 50 -68 50 -18 0 -50 24 -112 83 -48
46 -115 102 -149 126 -34 23 -79 64 -101 90 l-40 47 24 44 c17 33 23 62 24
107 0 54 -3 65 -28 90 -16 15 -33 35 -38 44 -5 8 -56 41 -113 72 -102 56 -106
57 -218 68 -109 10 -115 9 -153 -12 -62 -35 -125 -138 -139 -228 -10 -65 -9
-75 9 -111 24 -48 25 -53 3 -47 -10 3 -35 8 -56 12 l-38 6 2 85 c2 85 2 85
-33 122 -19 20 -49 58 -67 84 -30 45 -31 49 -31 160 l0 114 -52 74 c-29 40
-110 134 -181 209 -110 116 -149 149 -280 238 -84 56 -192 140 -241 185 l-88
83 9 55 c9 54 8 56 -35 122 l-44 66 17 81 c9 44 36 140 60 212 l45 132 -24 96
c-13 53 -34 153 -46 222 l-21 127 42 68 c61 100 162 216 230 264 38 26 59 48
59 61 0 21 35 81 82 141 l29 37 -46 183 c-25 101 -61 224 -81 274 l-36 92
-139 7 c-77 4 -211 4 -298 0 -136 -6 -162 -5 -189 9 -18 9 -32 23 -32 31 0 18
8 18 40 0 32 -18 81 -19 105 -2 18 14 13 43 -6 32 -23 -15 -111 85 -125 140
-6 25 9 35 21 15 10 -16 105 -58 110 -49 5 7 -18 36 -110 139 -12 14 -34 35
-48 47 -26 22 -35 43 -19 43 4 0 13 -5 20 -12 20 -20 26 0 7 28 -9 14 -21 50
-26 78 -4 28 -11 67 -15 86 l-7 35 22 -19 c11 -11 21 -14 21 -8 0 6 -15 23
-34 39 -34 28 -59 83 -37 83 6 0 11 -4 11 -8 0 -15 58 -77 65 -70 4 4 -3 21
-15 39 -21 28 -22 32 -7 41 23 13 21 28 -9 69 -41 54 -100 179 -114 239 -20
88 -29 102 -29 48 -1 -72 -44 -169 -92 -207 -43 -35 -50 -52 -19 -44 11 3 20
1 20 -5 0 -5 -9 -12 -21 -15 -24 -6 -16 -29 9 -26 10 1 20 1 24 0 7 -1 -37
-112 -65 -166 -13 -22 -13 -31 -4 -37 20 -13 39 -9 53 10 12 15 13 14 14 -16
0 -36 -24 -92 -40 -92 -6 0 -10 -7 -10 -15 0 -9 9 -15 25 -15 55 0 20 -43 -86
-103 -39 -22 -47 -32 -52 -63 -9 -52 7 -77 44 -72 18 3 29 0 29 -7 0 -18 -34
-45 -58 -45 -32 0 -74 -19 -67 -30 9 -15 91 -12 132 5 20 8 38 13 41 10 11
-11 -40 -52 -87 -69 -64 -23 -81 -41 -55 -61 18 -13 16 -14 -17 -15 -27 0 -41
-6 -52 -22 -14 -22 -21 -23 -158 -25 -79 -1 -189 -6 -244 -12 -235 -24 -314
-13 -488 68 -115 53 -244 93 -277 84 -22 -6 -23 -5 -12 10 8 9 23 17 34 19 12
2 23 9 26 17 3 10 -2 12 -19 8 -39 -10 -55 7 -25 27 34 22 36 60 4 51 -44 -13
-113 -61 -133 -93 -23 -36 -35 -40 -35 -12 0 11 5 20 11 20 6 0 8 9 3 23 -4
12 -8 31 -8 43 -1 28 -24 54 -49 54 -11 0 -44 14 -74 31 -48 28 -60 30 -107
25 -53 -7 -106 7 -106 27 0 5 11 18 24 28 32 25 41 65 22 94 -8 13 -43 37 -77
54 -151 75 -334 4 -263 -104 15 -23 15 -23 -40 -36 -47 -10 -59 -18 -85 -54
-16 -23 -37 -61 -47 -84 -17 -42 -18 -43 -56 -37 -35 6 -44 2 -78 -26 -21 -18
-75 -80 -120 -138 -45 -58 -85 -106 -89 -108 -4 -1 -22 33 -40 75 -31 72 -33
85 -31 168 2 50 2 156 1 236 -2 102 3 172 14 235 11 55 15 109 11 142 -3 28
-4 52 -2 52 3 0 19 -21 36 -46 22 -32 30 -52 26 -68 -4 -15 0 -28 9 -36 27
-22 18 49 -17 127 l-31 72 26 34 c21 28 27 50 35 131 5 53 12 100 16 104 10
10 38 -11 64 -48 28 -42 30 -112 3 -156 -23 -38 -35 -87 -26 -114 9 -28 27
-14 24 18 -1 15 7 58 19 96 24 75 28 136 11 169 -6 12 -31 40 -54 62 -40 38
-43 44 -49 113 -14 139 9 212 64 212 9 0 27 11 40 25 21 22 23 29 13 53 -6 15
-46 114 -88 221 l-78 195 12 210 c6 116 16 279 21 361 6 83 14 329 20 548 5
219 12 403 16 408 7 12 -14 39 -31 39 -7 0 -16 -8 -20 -17z m-1705 -934 c7
-11 9 -23 6 -26 -8 -9 -36 17 -36 33 0 21 18 17 30 -7z m-177 -156 l-28 -37
-3 28 c-3 20 5 37 25 58 26 28 28 28 31 9 2 -11 -9 -37 -25 -58z m1916 -767
c17 -42 31 -84 31 -93 0 -9 -15 -31 -34 -48 -37 -33 -56 -85 -56 -152 0 -23
-4 -45 -10 -48 -15 -9 -13 363 2 420 12 44 13 45 25 22 6 -13 26 -58 42 -101z
m-1929 -265 c0 -18 -43 -61 -61 -61 -19 0 -18 2 7 35 24 32 54 47 54 26z
m1883 -162 c3 -11 3 -86 0 -165 -6 -131 -8 -144 -25 -144 -16 0 -18 10 -20 93
-4 175 4 237 32 237 4 0 10 -9 13 -21z m-155 -222 c3 -113 2 -121 -13 -106
-26 26 -33 167 -10 202 9 15 18 27 19 27 0 0 2 -55 4 -123z m-1677 23 c-12
-17 -18 -36 -14 -46 13 -35 -62 -58 -109 -33 -19 10 -18 12 19 29 22 10 58 37
79 60 41 44 60 37 25 -10z m9554 -4978 c-3 -3 -11 0 -18 7 -9 10 -8 11 6 5 10
-3 15 -9 12 -12z m1439 -1233 c47 -10 81 -6 161 18 17 5 18 4 6 -11 -7 -9 -31
-26 -53 -38 -59 -33 -48 -54 27 -50 51 2 69 9 115 41 78 54 79 54 86 37 8 -20
-23 -47 -98 -86 -102 -53 -116 -52 -251 28 -108 65 -130 89 -67 76 14 -3 47
-10 74 -15z"/>
</g>
</svg>
