<?xml version="1.0" standalone="no"?>
<!DOCTYPE svg PUBLIC "-//W3C//DTD SVG 20010904//EN"
 "http://www.w3.org/TR/2001/REC-SVG-20010904/DTD/svg10.dtd">
<svg version="1.0" xmlns="http://www.w3.org/2000/svg"
 width="3840.000000pt" height="2400.000000pt" viewBox="0 0 3840.000000 2400.000000"
 preserveAspectRatio="xMidYMid meet">

<g transform="translate(0.000000,2400.000000) scale(0.100000,-0.100000)"
fill="#463a48" stroke="none">
<path d="M21889 10203 c-25 -4 -26 -8 -33 -80 -3 -42 -6 -95 -6 -118 0 -50
-18 -69 -83 -89 -25 -7 -47 -13 -49 -11 -2 1 -28 5 -58 9 l-55 7 32 -32 c41
-41 109 -50 166 -21 l37 20 0 -23 c0 -16 -12 -30 -36 -46 -33 -20 -35 -24 -20
-35 10 -7 40 -15 67 -19 37 -5 49 -11 49 -24 0 -28 -22 -49 -72 -70 -26 -11
-76 -42 -110 -68 -35 -26 -74 -55 -87 -63 l-24 -16 42 -13 c39 -11 45 -10 96
18 30 16 55 26 55 23 0 -23 -45 -69 -82 -84 l-43 -18 60 6 c51 5 69 13 125 54
36 27 66 48 67 46 1 -1 -3 -35 -8 -76 -6 -41 -9 -99 -6 -130 6 -84 -19 -274
-50 -377 -25 -87 -31 -96 -80 -138 -49 -42 -60 -47 -157 -67 -58 -11 -103 -24
-101 -28 3 -4 19 -11 37 -15 l33 -7 -40 -15 c-39 -14 -117 -13 -206 3 l-34 6
22 -23 c16 -16 43 -26 90 -34 60 -10 86 -9 206 11 88 14 147 29 164 42 56 38
57 34 3 -22 -48 -50 -64 -59 -136 -81 -53 -16 -108 -25 -155 -26 -71 -1 -73
-1 -44 -14 19 -9 68 -14 135 -15 85 0 120 5 184 25 114 36 109 40 104 -62 -5
-134 -12 -141 -255 -233 l-73 -28 -94 28 c-81 23 -101 26 -139 17 -40 -9 -53
-6 -137 27 -52 20 -95 34 -97 32 -2 -2 19 -30 46 -63 56 -67 79 -77 200 -88
41 -4 97 -16 125 -25 l51 -19 -53 0 c-29 -1 -69 6 -89 14 -44 18 -51 14 -29
-20 29 -45 60 -57 163 -64 l98 -7 -72 -22 c-70 -22 -73 -22 -200 -7 -70 9
-157 22 -193 29 -61 13 -64 13 -40 -2 14 -10 44 -34 67 -55 49 -45 104 -62
241 -76 95 -10 111 -8 232 31 46 15 92 41 154 89 49 38 91 67 93 65 7 -7 -24
-72 -54 -113 -44 -61 -93 -98 -153 -118 -30 -10 -69 -26 -86 -36 -23 -14 -51
-19 -103 -19 l-71 0 0 -31 0 -32 -67 6 -68 6 65 -31 c44 -21 90 -34 140 -39
41 -4 93 -12 115 -18 22 -6 73 -8 115 -5 71 6 74 5 53 -10 -86 -64 -344 -104
-533 -82 l-65 7 35 -20 c19 -11 52 -23 74 -26 47 -9 30 -25 -26 -25 -53 0 -95
-17 -79 -33 8 -8 72 -13 208 -15 174 -3 206 -1 285 18 111 27 133 22 92 -21
-16 -17 -57 -53 -91 -81 -63 -49 -64 -50 -225 -83 l-163 -33 65 -30 c36 -17
56 -31 46 -32 -52 -1 -204 24 -224 37 -22 14 -27 13 -61 -15 l-38 -30 -154
100 -154 101 -81 -22 c-57 -14 -114 -21 -185 -22 -57 0 -112 -3 -121 -7 -10
-4 -71 -52 -137 -107 -102 -86 -133 -105 -227 -145 -104 -45 -109 -48 -112
-79 -3 -29 -10 -35 -95 -74 -71 -33 -95 -50 -105 -72 -9 -19 -17 -110 -23
-264 l-9 -236 26 -70 c15 -38 40 -91 56 -117 20 -32 27 -53 23 -70 -8 -28
-188 -184 -249 -215 -30 -15 -72 -25 -127 -29 -63 -5 -98 -14 -142 -36 -53
-26 -61 -28 -100 -17 -23 6 -48 16 -54 21 -10 8 -13 -9 -13 -81 0 -90 -4 -103
-28 -79 -10 10 -16 7 -29 -12 -10 -14 -49 -61 -88 -105 -39 -44 -85 -98 -102
-120 -23 -30 -47 -46 -95 -64 -34 -13 -85 -37 -113 -54 -27 -17 -109 -54 -182
-81 l-131 -51 -118 -155 c-107 -140 -119 -161 -132 -220 -13 -63 -9 -110 119
-1350 73 -707 135 -1289 139 -1293 8 -9 4449 1089 4464 1104 6 5 -1 481 -18
1216 l-28 1208 -74 238 c-41 131 -74 245 -74 254 0 18 -290 515 -412 705 -71
111 -88 147 -94 189 -7 50 -6 52 15 46 22 -5 23 -3 19 39 -2 24 -3 44 -2 44 1
0 90 -41 199 -90 109 -50 200 -89 202 -86 3 2 -15 40 -39 84 l-43 80 -55 7
c-36 5 -91 25 -162 61 -111 55 -116 60 -151 147 l-16 37 37 -25 c20 -14 46
-25 58 -25 32 0 180 -45 248 -75 32 -14 60 -25 61 -23 2 2 -9 32 -23 67 l-26
63 -119 60 c-66 33 -148 80 -182 106 -59 44 -63 50 -69 97 -7 64 -8 150 0 197
l6 36 47 -32 c54 -38 103 -59 126 -54 12 2 -7 22 -59 63 -62 49 -75 65 -76 89
l0 29 49 -46 c86 -81 165 -106 229 -73 15 8 65 20 110 26 45 7 82 16 82 20 0
4 -30 10 -67 14 -52 5 -81 15 -123 41 l-55 34 75 -1 c89 0 152 22 168 58 14
29 10 30 -66 8 -49 -14 -66 -15 -146 -3 -115 16 -197 53 -258 116 l-47 48 -7
165 -7 164 29 -19 c110 -72 247 -135 262 -120 3 3 -5 17 -19 31 l-24 26 45 -8
c50 -9 131 -7 174 4 25 7 15 12 -75 37 -180 49 -276 90 -335 143 l-53 47 0
165 0 165 62 -66 c46 -49 95 -86 190 -142 l127 -76 -24 47 c-14 27 -64 85
-119 138 -79 76 -97 99 -112 144 -10 30 -43 95 -73 145 -47 76 -79 161 -82
217 0 3 37 -16 82 -43 44 -27 88 -49 97 -49 9 0 -9 24 -44 60 -32 33 -57 62
-54 64 2 2 31 -16 64 -41 108 -81 185 -107 185 -63 0 12 -7 20 -17 20 -29 0
-137 67 -179 112 -23 24 -54 68 -69 98 -15 30 -38 66 -50 80 -13 14 -27 43
-31 64 l-7 40 27 -21 c15 -12 40 -25 56 -28 16 -4 39 -20 51 -36 25 -36 74
-41 82 -9 4 17 -2 22 -38 31 -27 7 -56 25 -81 50 -48 49 -30 51 65 9 62 -27
120 -32 106 -9 -3 4 -64 39 -135 76 -138 73 -160 96 -160 167 0 61 -13 126
-24 125 -6 -1 -23 -4 -37 -6z m-49 -2937 c0 -9 -122 -121 -143 -132 -12 -7
-37 -15 -54 -19 -33 -7 -33 -6 -33 33 0 36 3 40 30 46 17 3 42 17 57 32 18 18
38 27 64 28 21 1 42 5 45 9 8 8 34 10 34 3z m-150 -303 c0 -3 -7 -15 -17 -25
-30 -33 -7 -34 70 -3 13 6 17 2 17 -18 0 -19 -7 -28 -30 -36 -16 -5 -30 -15
-30 -20 0 -6 -8 -11 -18 -11 -10 0 -39 -13 -65 -30 -56 -35 -61 -36 -54 -10 3
13 -1 21 -15 26 -27 8 -17 27 20 36 21 6 32 15 32 27 0 29 39 71 66 71 13 0
24 -3 24 -7z m204 -159 c6 -50 6 -52 -34 -88 -59 -53 -126 -84 -148 -68 -9 7
-28 16 -42 22 -80 31 -93 52 -39 61 19 3 57 18 86 32 29 15 58 27 65 27 7 0
30 19 51 42 22 24 41 37 46 32 5 -5 11 -32 15 -60z"/>
</g>
</svg>
