<?xml version="1.0" standalone="no"?>
<!DOCTYPE svg PUBLIC "-//W3C//DTD SVG 20010904//EN"
 "http://www.w3.org/TR/2001/REC-SVG-20010904/DTD/svg10.dtd">
<svg version="1.0" xmlns="http://www.w3.org/2000/svg"
 width="3840.000000pt" height="2400.000000pt" viewBox="0 0 3840.000000 2400.000000"
 preserveAspectRatio="xMidYMid meet">

<g transform="translate(0.000000,2400.000000) scale(0.100000,-0.100000)"
fill="#5a1532" stroke="none">
<path d="M7683 14891 c-51 -5 -97 -16 -123 -30 -22 -11 -58 -21 -80 -21 -23 0
-40 -5 -40 -11 0 -8 -14 -10 -42 -5 -24 3 -61 9 -83 12 -22 4 -47 13 -56 21
-14 12 -36 11 -165 -8 -159 -22 -165 -25 -257 -106 -20 -18 -45 -33 -56 -33
-10 0 -24 -6 -30 -14 -7 -8 -27 -18 -44 -22 -41 -8 -86 -31 -114 -56 -12 -11
-81 -37 -157 -58 -83 -23 -165 -54 -209 -78 -64 -35 -275 -102 -397 -127 -115
-23 -269 -81 -306 -116 -21 -19 -136 -44 -166 -35 -7 2 -44 13 -83 25 -38 11
-86 23 -106 26 -21 3 -54 17 -75 31 -33 23 -45 25 -94 20 -163 -18 -279 -19
-346 -2 -55 13 -80 14 -124 6 -30 -5 -95 -16 -145 -24 -103 -16 -514 -108
-592 -132 -35 -12 -50 -21 -46 -30 3 -8 -1 -14 -11 -14 -10 0 -16 -9 -16 -24
0 -15 -7 -26 -20 -29 -15 -4 -20 -14 -20 -36 0 -26 -4 -31 -25 -31 -19 0 -26
-6 -30 -27 -28 -130 -133 -348 -208 -429 -59 -65 -111 -102 -227 -164 -78 -41
-87 -50 -112 -99 -22 -43 -28 -68 -28 -121 l0 -67 -107 -89 c-169 -140 -246
-193 -335 -229 -46 -19 -139 -64 -208 -100 -69 -36 -143 -70 -165 -75 -22 -5
-57 -16 -77 -25 -21 -8 -51 -15 -67 -15 -43 0 -140 -45 -178 -82 -27 -26 -33
-40 -33 -74 0 -24 -5 -55 -10 -70 -8 -20 -7 -41 5 -82 13 -43 14 -65 6 -101
-5 -25 -13 -70 -16 -100 -8 -74 -31 -102 -123 -149 -43 -23 -86 -50 -96 -61
-11 -12 -25 -21 -33 -21 -7 0 -21 -9 -30 -20 -20 -24 -68 -27 -77 -5 -3 8 -16
19 -29 24 -29 11 -42 50 -21 58 8 3 26 3 39 1 14 -3 25 -1 25 4 0 5 -31 40
-68 76 -79 77 -105 114 -190 267 -38 68 -64 127 -67 155 l-7 45 57 -62 c47
-52 62 -63 88 -63 29 1 30 2 15 14 -10 7 -18 23 -18 36 0 30 -164 269 -185
270 -6 0 -11 15 -11 33 -1 20 -14 52 -37 86 -21 29 -37 59 -37 67 0 15 -16 19
-24 6 -3 -5 -15 -53 -27 -108 -12 -55 -36 -128 -55 -165 -18 -37 -46 -116 -63
-177 -25 -95 -27 -113 -15 -123 11 -9 19 -8 34 6 11 10 20 25 20 34 0 9 7 25
15 35 14 19 15 19 15 -6 0 -39 -17 -77 -50 -115 -17 -19 -30 -42 -30 -53 0
-11 -17 -46 -39 -79 -43 -67 -57 -109 -43 -123 19 -19 47 3 78 60 17 31 35 56
40 54 18 -6 2 -78 -27 -119 -16 -22 -38 -61 -48 -86 -11 -25 -24 -48 -30 -51
-13 -9 -15 -93 -2 -101 5 -3 12 -1 16 5 11 18 25 10 25 -15 0 -15 -6 -25 -15
-25 -8 0 -17 -11 -21 -25 -3 -14 -10 -25 -14 -25 -4 0 -10 -8 -13 -17 -4 -10
-16 -30 -29 -45 -22 -28 -22 -28 -2 -42 17 -13 22 -13 42 0 29 19 41 10 24
-16 -10 -17 -8 -26 18 -61 37 -52 37 -62 1 -86 -16 -10 -112 -107 -215 -215
-162 -172 -195 -202 -263 -239 -53 -29 -124 -85 -220 -173 l-143 -131 0 -5287
0 -5288 13895 0 c11109 0 13895 3 13895 13 0 6 5 82 10 167 5 85 21 1331 34
2770 14 1438 27 2780 31 2981 l5 367 -295 727 -296 728 -412 811 -411 811
-388 590 c-321 489 -395 595 -430 619 -33 23 -50 45 -75 100 -44 95 -63 152
-63 188 0 36 -16 68 -35 68 -13 0 -31 -41 -74 -172 -13 -38 -28 -68 -35 -68
-7 0 -30 -16 -52 -35 -37 -32 -38 -35 -18 -41 15 -4 26 -20 34 -51 15 -53 10
-61 -65 -88 -27 -9 -67 -28 -88 -42 -36 -23 -38 -25 -20 -38 10 -8 26 -15 36
-15 52 -1 -17 -65 -92 -86 -171 -48 -194 -62 -212 -128 -21 -81 -162 -261
-191 -245 -8 5 -30 61 -49 124 -31 108 -36 119 -74 148 -62 47 -82 77 -50 77
8 0 19 -9 25 -20 6 -12 21 -20 36 -20 21 0 24 3 18 28 -3 15 -16 36 -28 47
-37 35 -76 91 -76 111 1 17 3 16 23 -6 24 -28 57 -29 57 -2 0 9 -20 49 -43 88
-24 39 -54 103 -67 143 -35 103 -59 94 -61 -22 -2 -97 -10 -118 -56 -152 -48
-35 -73 -75 -45 -75 9 1 34 7 56 15 l38 13 -5 -34 c-4 -22 -23 -54 -51 -85
-25 -28 -46 -55 -46 -60 0 -4 19 -9 42 -11 23 -2 43 -8 45 -15 2 -6 -25 -35
-60 -62 -83 -65 -89 -79 -37 -87 l39 -6 -77 -74 c-88 -83 -124 -95 -143 -47
-6 16 -18 37 -27 47 -16 18 -16 19 22 13 l39 -6 -73 75 c-40 41 -70 77 -66 81
3 3 14 -1 24 -10 10 -10 28 -17 39 -17 19 0 20 3 9 34 -7 19 -33 57 -59 85
-49 52 -67 86 -67 124 0 19 6 16 36 -20 40 -48 78 -57 89 -22 5 15 -1 30 -22
53 -16 17 -42 49 -58 70 l-28 39 26 -7 c16 -4 27 -2 27 4 0 17 -76 212 -104
267 -19 39 -26 67 -26 111 0 35 -6 66 -14 78 -14 18 -15 18 -26 -11 -7 -17
-10 -53 -7 -85 5 -48 4 -53 -8 -36 -21 28 -32 12 -37 -58 -5 -60 -36 -134 -61
-145 -4 -1 -20 -14 -34 -27 -14 -13 -36 -24 -49 -24 -28 0 -37 -13 -29 -41 4
-13 12 -18 22 -15 37 15 63 18 63 7 0 -6 -30 -42 -66 -80 -59 -64 -65 -73 -59
-101 4 -16 10 -28 15 -25 4 3 10 -1 13 -9 4 -9 -11 -21 -46 -36 -49 -21 -50
-23 -27 -30 14 -5 53 -8 88 -9 l62 -1 -16 -25 c-17 -26 -111 -85 -136 -85 -8
0 -23 9 -33 20 -14 15 -26 19 -45 15 -21 -5 -37 3 -79 37 -62 51 -51 63 18 19
108 -70 108 -22 1 98 -77 85 -102 132 -62 116 31 -12 36 -10 40 12 2 15 -7 29
-32 48 -39 30 -84 96 -115 168 -30 70 -8 63 42 -12 27 -42 43 -49 52 -22 4 14
-12 54 -52 128 -53 99 -116 243 -110 250 8 8 50 -33 66 -66 14 -27 31 -42 60
-53 27 -11 39 -12 34 -5 -3 7 -41 64 -83 127 -43 63 -98 148 -124 188 -43 67
-74 94 -62 55 20 -70 20 -74 -8 -67 -25 6 -26 5 -26 -42 0 -74 -16 -118 -65
-176 -47 -54 -57 -94 -28 -105 11 -4 25 5 46 30 35 45 57 48 57 9 0 -33 -16
-58 -90 -138 -42 -45 -59 -72 -63 -100 -12 -70 28 -65 100 14 32 35 42 42 43
28 0 -32 -50 -118 -107 -183 -30 -35 -46 -60 -36 -56 10 4 24 15 31 25 7 10
24 18 38 18 l24 0 -34 -67 c-19 -38 -48 -78 -65 -91 -36 -26 -40 -48 -11 -57
33 -11 23 -42 -30 -87 -66 -57 -68 -88 -2 -54 53 27 72 29 72 9 0 -15 -15 -24
-62 -38 -35 -11 -55 -21 -45 -23 23 -5 21 -18 -5 -37 -22 -15 -22 -16 -4 -30
18 -13 17 -16 -13 -54 -23 -29 -46 -44 -84 -57 -28 -9 -86 -36 -127 -59 -41
-23 -100 -50 -130 -60 -30 -10 -79 -34 -107 -53 l-53 -35 0 -61 c1 -34 7 -86
14 -116 10 -44 17 -56 34 -58 15 -2 22 -10 22 -24 0 -18 -5 -20 -44 -16 l-44
5 -115 -111 c-109 -105 -115 -114 -122 -160 -8 -60 -101 -204 -164 -254 -51
-41 -137 -82 -173 -82 -34 0 -63 37 -72 92 -5 30 -18 54 -44 81 l-36 37 31 0
c18 0 35 5 38 10 3 6 3 10 -2 10 -4 0 -16 7 -26 14 -16 12 -17 20 -9 50 l10
35 -36 3 -37 3 32 21 32 20 -72 66 c-83 75 -106 110 -88 132 11 13 17 13 53 0
22 -8 45 -14 51 -14 18 0 -31 46 -104 97 -65 45 -112 104 -96 119 4 4 17 -2
30 -13 74 -68 92 -37 22 38 -25 26 -45 54 -45 61 0 6 -16 47 -37 90 -20 43
-34 81 -30 84 3 3 20 -10 37 -30 31 -34 70 -48 70 -25 0 6 -31 46 -69 88 -37
42 -83 102 -101 134 -35 62 -56 72 -66 30 -48 -213 -69 -273 -108 -305 -18
-15 -18 -17 -4 -18 9 0 20 4 23 10 3 5 15 15 26 21 19 10 20 9 9 -13 -7 -13
-23 -38 -37 -55 -34 -46 -8 -41 36 7 20 22 39 40 43 40 10 0 -4 -44 -22 -67
-10 -13 -21 -38 -24 -56 -4 -22 -20 -45 -51 -70 -25 -21 -49 -47 -55 -58 -10
-18 -9 -19 14 -13 l25 6 -14 -46 c-16 -51 -15 -53 21 -30 13 9 28 13 32 9 4
-4 1 -10 -6 -12 -43 -16 -136 -90 -148 -119 -7 -17 -26 -41 -41 -53 -30 -22
-20 -27 21 -11 14 5 28 6 30 1 6 -9 -41 -56 -64 -64 -8 -3 2 -6 23 -6 41 -1
49 -19 17 -39 -11 -7 -20 -22 -20 -35 0 -31 -9 -41 -57 -66 -40 -20 -42 -22
-36 -58 3 -21 10 -44 16 -50 12 -17 -46 -85 -82 -96 -33 -10 -117 1 -158 20
-17 8 -54 41 -82 73 -33 38 -62 61 -81 65 -29 6 -50 30 -50 55 0 7 7 10 15 6
20 -7 19 3 -5 39 -36 55 -17 62 38 14 20 -18 38 -27 40 -21 5 16 -52 96 -82
116 -27 17 -49 53 -71 116 l-14 39 60 -60 c32 -32 64 -59 69 -59 16 0 11 27
-10 52 -27 32 -92 159 -85 166 3 4 21 -10 40 -31 19 -20 41 -37 49 -37 22 0
20 13 -5 36 -71 65 -118 169 -166 369 -25 109 -30 120 -52 123 -23 4 -23 3
-16 -63 14 -137 -32 -279 -121 -372 -31 -33 -36 -43 -22 -43 10 0 36 16 58 36
26 24 40 31 40 21 0 -14 -35 -54 -74 -85 -9 -7 -16 -22 -16 -33 l0 -21 35 21
36 21 -12 -23 c-23 -45 -62 -77 -93 -77 -17 0 -39 -7 -50 -15 -17 -13 -15 -14
18 -21 20 -3 50 -4 66 0 24 4 30 2 30 -12 0 -11 -22 -27 -60 -46 -34 -16 -59
-34 -57 -40 2 -6 18 -15 35 -20 49 -14 54 -52 14 -86 l-32 -26 -87 28 c-147
48 -248 59 -600 65 -285 5 -323 4 -323 -9 0 -9 -30 -55 -66 -104 l-66 -88 27
-67 c14 -37 30 -103 34 -146 5 -47 23 -117 45 -177 20 -54 36 -102 36 -107 0
-4 -27 -29 -61 -56 -39 -30 -70 -64 -85 -94 -34 -68 -65 -85 -183 -106 -96
-16 -103 -19 -124 -51 -12 -18 -42 -42 -67 -53 -70 -31 -162 -95 -192 -133
-38 -48 -108 -65 -175 -42 -25 9 -53 16 -61 16 -8 0 -49 22 -91 49 -68 43 -95
53 -243 90 -91 23 -178 41 -191 41 -14 0 -29 5 -32 10 -4 7 -12 7 -25 0 -10
-5 -35 -10 -56 -10 -25 0 -49 -9 -71 -26 -52 -39 -144 -61 -232 -54 -69 5 -73
6 -59 21 9 9 38 19 64 23 25 3 63 16 83 28 l36 23 -100 6 c-80 4 -112 11 -160
33 -74 34 -64 41 60 49 50 3 108 11 130 18 l40 12 -31 11 c-17 6 -42 18 -55
27 -21 14 -22 19 -13 51 l11 35 -92 6 c-111 6 -177 24 -173 46 2 9 21 19 48
24 l45 9 -45 17 c-38 14 -46 21 -48 46 l-4 30 24 -22 c18 -17 40 -22 103 -27
66 -5 74 -4 45 5 -31 10 -33 12 -15 21 10 6 57 12 103 13 75 1 87 4 103 24 28
34 24 41 -26 41 -26 0 -71 11 -105 25 -33 14 -67 25 -77 25 -10 0 -25 5 -33
10 -12 7 -10 11 9 18 16 6 20 11 13 16 -7 4 -12 27 -12 50 0 36 5 47 27 61
l26 18 -92 35 c-52 20 -96 43 -102 53 -13 25 6 25 90 -1 36 -11 67 -18 68 -16
2 2 -14 19 -35 37 -47 41 -68 75 -49 82 9 3 9 7 -1 20 -12 14 -11 17 10 21 12
3 36 7 52 8 44 4 42 24 -3 48 -23 11 -41 24 -41 29 0 14 53 20 92 12 34 -8 36
-7 41 18 7 35 -3 43 -65 49 -43 3 -70 15 -140 60 -49 31 -88 60 -88 65 0 9 22
7 98 -9 25 -5 32 -3 32 9 0 31 -13 47 -37 47 -30 0 -27 21 5 35 53 24 13 53
-84 62 -54 5 -68 10 -75 27 -6 12 -40 38 -75 59 -36 21 -63 41 -60 44 3 3 43
-13 90 -36 90 -43 140 -52 150 -25 20 52 -8 117 -58 134 -18 6 -42 20 -52 32
-11 11 -43 36 -72 55 -30 19 -52 37 -49 39 2 3 39 -9 82 -26 80 -32 140 -37
140 -11 0 8 -21 19 -53 27 -89 23 -97 35 -19 31 57 -2 67 -1 65 13 -2 10 -19
17 -53 20 -34 4 -70 17 -112 44 -85 52 -95 66 -46 60 21 -3 45 0 53 5 12 8 11
14 -10 35 -29 32 -11 35 45 6 22 -11 43 -20 48 -20 14 0 -98 107 -129 123 -41
21 -90 77 -98 110 -3 15 -4 27 -1 27 3 0 21 -18 40 -39 34 -38 103 -71 148
-71 28 0 15 23 -24 42 -29 13 -92 68 -78 68 2 0 26 -7 53 -15 63 -19 78 -19
74 2 -2 9 -20 21 -42 27 -52 15 -57 33 -12 42 20 3 36 10 36 14 0 14 -39 41
-74 51 -42 12 -43 32 -2 39 26 5 22 9 -53 54 -107 65 -116 76 -60 76 l44 0
-90 86 c-72 68 -82 81 -50 63 22 -12 53 -35 69 -51 30 -29 72 -46 84 -33 4 4
-9 21 -29 38 -24 21 -38 43 -41 65 -5 36 2 39 37 16 13 -9 32 -14 42 -12 15 3
12 10 -18 38 -20 19 -57 52 -83 73 -45 38 -96 119 -96 153 0 16 1 16 18 1 22
-20 72 -39 72 -27 0 5 -18 30 -40 55 -44 51 -73 103 -84 150 -11 44 -34 75
-56 75 -19 0 -24 -12 -46 -105 -15 -67 -62 -152 -102 -186 -42 -36 -47 -57 -8
-37 11 6 40 26 64 45 78 63 70 10 -14 -90 -39 -47 -57 -78 -58 -98 -1 -24 -8
-34 -33 -44 -37 -16 -52 -35 -26 -35 10 0 31 -7 47 -15 15 -8 37 -15 47 -15
23 0 25 -23 4 -40 -8 -7 -20 -30 -27 -51 -9 -30 -25 -49 -75 -86 -68 -50 -83
-78 -35 -67 63 14 93 27 110 48 16 21 52 46 66 46 27 0 -28 -58 -101 -108 -38
-26 -43 -57 -11 -68 19 -6 19 -7 5 -16 -32 -17 -17 -28 38 -28 30 0 55 -3 55
-7 -1 -18 -157 -122 -192 -128 -45 -8 -49 -29 -10 -43 28 -9 91 6 118 29 13
11 54 4 54 -9 0 -17 -65 -84 -110 -113 -28 -18 -50 -34 -50 -37 0 -11 79 7
120 27 24 11 45 21 47 21 1 0 10 -11 18 -24 15 -23 15 -27 -9 -73 -27 -55 -74
-101 -153 -152 -29 -18 -50 -37 -47 -42 3 -5 24 -9 46 -9 40 0 41 0 24 -19
-10 -11 -32 -23 -48 -26 -21 -5 -27 -10 -20 -17 10 -10 58 -2 105 17 13 5 17
2 17 -14 0 -14 -6 -21 -19 -21 -11 0 -32 -7 -48 -14 -15 -8 -36 -17 -45 -20
-29 -9 -22 -51 10 -66 l27 -13 -35 -9 c-19 -5 -42 -16 -50 -24 -12 -12 -9 -14
25 -15 22 0 49 -4 60 -9 22 -9 24 -7 -50 -34 -79 -28 -130 -50 -137 -61 -4 -5
-11 -16 -16 -23 -5 -7 -67 -33 -138 -58 -106 -37 -135 -52 -161 -81 -26 -29
-37 -34 -58 -29 -28 7 -33 27 -10 46 24 20 19 50 -8 50 -13 0 -27 4 -33 9 -5
5 -38 11 -74 14 -69 5 -203 49 -265 87 -36 22 -75 73 -75 98 0 13 122 -44 171
-81 23 -16 31 -18 43 -8 11 9 45 12 113 9 l97 -3 7 33 c8 39 5 36 52 55 20 9
37 21 37 26 0 14 -11 14 -65 0 -36 -9 -47 -8 -68 5 -23 16 -27 16 -60 0 -34
-16 -40 -16 -104 0 -87 21 -193 74 -193 97 0 4 26 -4 58 -18 62 -28 124 -35
143 -16 9 9 5 15 -17 25 -29 13 -44 26 -44 41 0 10 54 9 126 -5 60 -11 65 -10
87 10 14 14 36 22 56 22 33 0 33 0 17 25 -13 20 -14 30 -5 46 16 30 8 31 -41
7 -26 -13 -70 -24 -106 -26 -53 -4 -71 0 -126 27 -74 35 -113 63 -129 94 -9
16 0 12 38 -16 39 -28 69 -40 128 -52 l78 -15 36 28 36 27 -72 6 c-69 5 -113
19 -62 19 13 0 44 9 68 20 24 11 54 20 67 20 15 0 24 6 24 15 0 19 -35 19 -91
0 -48 -17 -75 -12 -169 35 -59 30 -82 52 -125 117 -37 58 -26 68 42 38 81 -36
193 -30 193 10 0 12 -12 15 -53 15 -55 0 -104 25 -150 78 -21 23 -14 47 12 37
59 -23 107 -23 182 1 86 27 116 50 77 59 -12 2 -54 6 -93 8 -74 2 -71 11 7 22
49 6 108 40 116 65 4 12 1 11 -15 -2 -29 -26 -184 -25 -258 1 -98 35 -155 93
-170 174 -9 47 0 47 82 2 55 -30 73 -35 131 -35 74 0 112 8 112 21 0 12 -12
16 -75 25 -46 7 -48 8 -20 14 41 9 91 36 98 53 4 11 -5 12 -51 5 -97 -15 -172
11 -93 32 40 10 71 41 71 69 0 10 -8 7 -26 -10 -24 -22 -33 -24 -120 -22 -94
1 -124 11 -124 39 0 10 14 14 46 14 25 0 55 5 67 12 20 11 16 13 -43 23 -61 9
-66 12 -82 46 -9 20 -20 49 -24 64 -6 26 -5 28 17 22 13 -4 68 -12 121 -18 87
-11 102 -10 145 6 39 15 44 20 28 26 -11 4 -41 8 -66 8 -32 1 -49 6 -52 16 -7
17 -3 20 40 30 37 7 81 59 62 71 -10 6 -24 -7 -32 -31 -2 -5 -34 -9 -71 -7
-92 2 -203 54 -246 114 -27 36 -38 68 -26 68 3 0 21 -9 41 -21 48 -29 102 -40
115 -24 13 16 3 25 -31 25 -21 0 -42 16 -94 73 -36 39 -68 82 -71 95 -4 12
-10 22 -14 22 -17 0 -20 -37 -14 -131 6 -82 4 -102 -10 -123 -9 -14 -16 -42
-16 -62 0 -25 -9 -49 -27 -73 -60 -78 -93 -136 -78 -139 18 -4 48 12 106 56
41 31 44 32 47 14 4 -28 -35 -101 -66 -127 -33 -26 -103 -45 -167 -45 l-49 0
34 -30 c32 -28 40 -30 93 -26 54 4 75 -5 42 -18 -20 -7 -20 -46 0 -46 50 0
130 68 141 119 12 53 16 61 30 61 19 0 19 0 -26 -125 -35 -101 -43 -114 -95
-162 -54 -51 -58 -53 -113 -53 -51 0 -55 -2 -41 -15 8 -9 39 -19 67 -24 29 -4
55 -11 58 -14 3 -3 -21 -17 -52 -31 l-58 -27 27 -14 c24 -12 32 -12 70 5 23
11 47 20 53 20 14 0 54 -81 54 -111 0 -53 -13 -100 -26 -95 -16 6 -28 -24 -14
-38 16 -16 12 -82 -6 -97 -13 -10 -17 -10 -25 2 -5 8 -9 17 -9 21 0 4 -6 5
-13 2 -7 -2 -24 7 -37 21 -18 20 -33 25 -69 25 -54 0 -91 -9 -91 -21 0 -5 14
-9 32 -9 34 0 99 -43 95 -63 -1 -7 13 -13 38 -15 67 -4 82 -11 95 -41 9 -23 9
-34 -1 -53 -22 -42 -39 -48 -124 -42 -90 7 -138 -6 -133 -33 5 -28 57 -47 133
-49 73 -1 115 -11 115 -24 0 -5 -12 -18 -26 -29 -21 -17 -39 -21 -84 -19 -60
3 -90 -11 -90 -41 0 -25 95 -45 141 -30 19 6 39 18 46 26 7 10 13 11 18 3 10
-16 -52 -107 -77 -113 -11 -3 -33 -3 -48 0 -25 5 -29 1 -44 -43 -9 -26 -16
-51 -16 -55 0 -5 37 -9 83 -11 l82 -3 -75 -23 c-41 -13 -86 -27 -99 -30 -13
-4 -26 -12 -28 -19 -8 -24 47 -25 125 -4 43 12 81 21 85 21 4 0 7 -16 7 -35 0
-41 -20 -57 -95 -74 -27 -7 -68 -17 -90 -23 l-40 -10 38 -19 c41 -21 43 -26
23 -51 -9 -13 -26 -17 -57 -16 -25 1 -44 -3 -47 -10 -5 -17 -115 -14 -267 7
-163 23 -338 85 -343 121 -6 37 10 43 73 30 47 -10 59 -9 66 1 5 9 -3 20 -27
33 -41 24 -43 32 -6 40 15 3 41 18 57 32 29 26 29 26 5 20 -82 -20 -109 -19
-164 9 -56 28 -66 52 -17 41 81 -17 91 -18 91 -7 0 6 -12 13 -27 16 -16 3 -43
14 -62 23 l-34 17 34 8 c96 24 107 48 22 46 -92 -2 -163 34 -197 98 -23 45
-20 51 12 21 39 -37 124 -79 174 -85 l42 -6 -22 28 c-38 48 -28 53 56 29 38
-11 25 14 -20 37 -40 20 -138 89 -203 143 -46 38 -24 41 45 6 34 -17 66 -30
72 -28 6 2 -19 31 -56 65 l-66 61 45 6 c24 4 47 11 50 16 3 5 -14 22 -37 38
-90 62 -193 188 -222 270 -18 49 -13 52 26 15 49 -47 42 -16 -16 64 -31 42
-56 87 -56 100 0 12 -9 27 -20 33 -11 6 -31 33 -46 61 -36 71 -49 60 -50 -44
-2 -104 -28 -212 -60 -250 -32 -38 -32 -67 1 -67 28 0 32 -12 10 -30 -8 -7
-15 -22 -15 -34 0 -12 -16 -48 -35 -81 -20 -32 -33 -61 -30 -64 11 -11 40 17
70 67 40 68 58 86 46 46 -23 -81 -66 -144 -96 -144 -8 0 -15 -4 -15 -10 0 -5
16 -10 36 -10 28 0 43 7 66 32 23 25 31 29 38 18 6 -10 -5 -42 -35 -100 -23
-47 -48 -100 -54 -119 -9 -30 -8 -33 9 -28 30 8 24 -8 -14 -40 -18 -15 -41
-42 -50 -60 -8 -17 -21 -33 -28 -36 -7 -2 -9 -8 -5 -13 4 -4 16 -3 25 4 9 6
34 19 55 28 20 9 47 29 58 45 21 31 39 38 39 16 0 -14 -90 -107 -105 -107 -6
-1 -26 -14 -45 -30 -19 -17 -39 -30 -45 -30 -18 0 -51 42 -73 93 -12 26 -30
59 -41 73 -18 23 -20 36 -14 114 5 86 5 89 -25 131 -16 24 -60 78 -96 119 -37
41 -69 84 -71 95 -2 11 -11 76 -20 145 -9 69 -27 179 -40 245 -13 66 -29 158
-36 205 -6 47 -18 97 -25 112 -19 37 -207 234 -276 288 -72 57 -91 101 -118
280 -12 76 -34 170 -50 215 -18 50 -32 111 -36 163 -7 79 -6 82 14 82 50 0 12
111 -55 164 l-25 19 57 57 56 57 -32 71 c-17 40 -36 72 -41 72 -24 0 -517 209
-650 276 -108 54 -164 77 -202 80 -78 8 -173 50 -228 99 -33 29 -70 51 -115
66 -53 17 -83 37 -156 101 -78 69 -113 90 -271 168 -146 72 -190 99 -230 139
-27 27 -62 55 -77 61 -16 7 -30 22 -34 38 -11 48 -119 253 -137 263 -10 6 -65
45 -122 89 -78 60 -105 86 -109 108 -5 26 -12 29 -84 46 -43 10 -136 36 -208
57 -146 43 -185 70 -185 132 0 45 -37 174 -63 220 -11 21 -30 40 -42 42 -11 2
-72 13 -135 24 -124 22 -340 67 -344 73 -2 1 -15 38 -31 81 -15 42 -31 77 -35
77 -12 0 -20 -28 -20 -71 0 -56 -20 -59 -88 -12 -31 22 -70 43 -85 47 -44 10
-103 52 -123 85 -10 16 -27 35 -40 41 -13 7 -34 40 -49 77 -30 71 -45 84 -173
157 -82 48 -83 48 -185 51 -56 2 -139 0 -184 -4z m5568 -5374 c-1 -14 -72
-135 -87 -148 -12 -10 -17 -8 -29 7 -8 10 -15 25 -15 32 0 7 -12 17 -27 23
-27 10 -25 11 57 54 82 42 102 48 101 32z m1724 -362 c36 -23 55 -42 55 -54 0
-32 -35 -35 -85 -6 -39 24 -45 31 -45 61 0 19 5 34 10 34 6 0 35 -16 65 -35z
m-411 -1 c14 -35 -39 -60 -63 -30 -10 12 -7 18 16 30 36 19 40 19 47 0z m3671
-1375 c11 -17 2 -18 -25 -4 -24 14 -24 14 -3 15 12 0 25 -5 28 -11z"/>
<path d="M30860 13734 c-87 -33 -102 -35 -178 -32 -81 4 -83 4 -120 -27 -20
-18 -89 -60 -152 -95 -63 -35 -135 -77 -160 -94 -83 -55 -324 -273 -495 -447
l-171 -174 -93 -317 -93 -318 263 -671 c188 -479 269 -675 283 -684 12 -7 377
-157 811 -333 l790 -321 660 -111 c798 -135 1331 -226 2629 -446 724 -123 991
-165 994 -156 2 8 25 12 64 12 33 0 601 -59 1263 -130 661 -71 1212 -130 1224
-130 l21 0 0 739 0 738 -66 6 c-52 4 -71 10 -92 30 l-27 25 -83 -14 -82 -15
-69 29 c-37 16 -104 56 -147 88 -64 49 -371 237 -461 283 -12 6 -46 11 -75 11
-29 0 -83 3 -121 7 l-67 6 -113 146 c-98 127 -222 295 -229 311 -2 3 -45 42
-95 86 l-93 80 -133 31 c-104 25 -162 45 -268 96 l-134 64 -78 174 c-44 98
-99 202 -126 239 l-47 64 -93 -3 c-59 -2 -127 4 -186 15 -90 17 -93 18 -116
57 l-24 39 -102 -5 -102 -6 -36 51 c-55 75 -55 81 -6 63 30 -10 49 -12 68 -4
l26 10 -45 47 c-40 42 -98 127 -98 146 0 3 23 -5 50 -19 67 -34 66 -22 -9 110
-56 98 -60 109 -66 192 -4 48 -13 104 -20 123 l-12 35 -11 -40 c-6 -22 -18
-69 -27 -105 -9 -36 -31 -90 -49 -120 -44 -72 -52 -100 -32 -100 24 0 19 -13
-16 -47 -35 -32 -69 -53 -88 -53 -6 0 -31 42 -55 94 -41 89 -48 98 -117 149
-56 41 -89 58 -141 71 -53 13 -85 29 -142 72 -40 30 -88 59 -106 64 -40 12
-129 12 -338 3 l-152 -6 -89 -57 c-56 -36 -106 -60 -132 -64 -24 -4 -85 -30
-137 -57 -88 -48 -96 -50 -140 -43 -25 5 -57 9 -71 10 -29 1 -186 41 -215 54
-11 5 -103 27 -205 50 -102 23 -311 76 -465 117 l-280 75 -90 100 c-50 55
-126 126 -172 159 l-81 59 -108 -9 -107 -10 -68 35 -69 34 -182 -1 -183 0 -95
-35z"/>
<path d="M14360 10261 c0 -6 4 -13 10 -16 6 -3 7 1 4 9 -7 18 -14 21 -14 7z"/>
</g>
</svg>
