<?xml version="1.0" standalone="no"?>
<!DOCTYPE svg PUBLIC "-//W3C//DTD SVG 20010904//EN"
 "http://www.w3.org/TR/2001/REC-SVG-20010904/DTD/svg10.dtd">
<svg version="1.0" xmlns="http://www.w3.org/2000/svg"
 width="3840.000000pt" height="2400.000000pt" viewBox="0 0 3840.000000 2400.000000"
 preserveAspectRatio="xMidYMid meet">

<g transform="translate(0.000000,2400.000000) scale(0.100000,-0.100000)"
fill="#7a1b3b" stroke="none">
<path d="M3061 13732 c-8 -18 -12 -59 -10 -100 l4 -70 -51 -54 c-37 -38 -53
-65 -58 -93 -4 -22 -16 -63 -28 -91 -17 -43 -28 -55 -67 -74 -25 -12 -82 -46
-126 -75 -62 -41 -107 -61 -198 -89 -110 -33 -123 -39 -187 -96 -42 -38 -92
-97 -130 -156 -35 -52 -66 -94 -69 -94 -4 0 -54 -9 -112 -19 -154 -29 -309
-101 -406 -188 -41 -36 -98 -94 -126 -129 -35 -42 -65 -68 -94 -79 -23 -10
-44 -23 -47 -30 -5 -14 -52 -9 -62 6 -3 5 -53 9 -112 9 -92 0 -122 -4 -207
-31 -54 -17 -106 -32 -114 -34 -70 -14 -419 -183 -527 -255 l-71 -49 -31 -88
c-17 -48 -33 -100 -36 -115 -7 -31 -18 -35 -35 -15 -6 7 -40 92 -77 188 -36
96 -70 183 -75 194 -4 11 -8 -1173 -8 -2631 -1 -2106 2 -2653 12 -2666 11 -13
232 67 1847 675 1009 379 1837 691 1839 693 3 2 97 3252 101 3469 0 13 -51 75
-135 165 -74 80 -135 148 -135 152 0 5 9 8 21 8 20 0 20 1 14 303 -6 296 -49
989 -62 1011 -4 6 -53 77 -109 158 -94 133 -103 151 -106 197 l-3 51 -59 -51
-60 -51 -33 39 c-18 21 -35 49 -39 63 -3 14 -9 36 -13 49 -7 24 -7 24 -20 -7z"/>
<path d="M37620 12883 c0 -10 -13 -26 -30 -35 -28 -16 -29 -19 -24 -65 5 -41
1 -57 -27 -114 -19 -36 -47 -85 -63 -108 -27 -39 -28 -43 -13 -58 15 -15 19
-14 49 9 33 25 68 41 68 33 0 -3 -9 -25 -21 -49 -20 -44 -44 -71 -106 -121
-27 -22 -33 -34 -33 -66 0 -55 22 -60 66 -15 40 41 54 45 54 16 0 -26 -22 -61
-77 -124 -60 -68 -57 -82 12 -49 19 9 38 14 42 10 16 -17 -45 -94 -120 -150
-38 -29 -41 -51 -6 -62 25 -8 24 -26 -2 -59 -15 -19 -30 -26 -55 -26 l-35 0
16 -30 c18 -35 19 -71 3 -91 -16 -20 -342 -153 -509 -208 l-127 -42 -36 -54
c-20 -31 -42 -82 -50 -114 -17 -72 -6 -54 -143 -238 l-114 -151 40 -222 c22
-122 41 -224 43 -225 3 -3 1969 -685 1975 -685 1 0 3 627 2 1393 0 1091 -3
1386 -13 1365 -6 -15 -21 -37 -32 -50 -15 -16 -23 -43 -28 -88 -7 -76 -55
-158 -112 -192 -40 -23 -40 -42 -1 -46 15 -2 27 -9 27 -16 0 -8 -25 -42 -56
-76 -52 -58 -56 -66 -51 -102 4 -33 2 -39 -21 -50 -53 -27 -40 -40 50 -53 l48
-6 -65 -45 c-36 -24 -67 -44 -69 -44 -11 0 -96 149 -96 167 0 13 -13 29 -34
41 -35 21 -48 54 -35 88 17 43 7 84 -57 219 -89 190 -116 259 -112 286 3 22 5
22 39 -14 32 -33 69 -49 69 -30 0 13 -75 140 -125 213 -29 41 -55 88 -59 105
-10 42 -46 63 -46 28z"/>
<path d="M21816 11778 c-22 -34 -59 -86 -83 -115 -46 -56 -43 -73 12 -59 14 4
25 3 25 -2 0 -16 -74 -103 -99 -117 -23 -13 -24 -14 -6 -16 11 -1 46 0 77 1
53 2 56 0 51 -19 -3 -12 -17 -31 -31 -42 -14 -11 -34 -33 -44 -49 -9 -16 -43
-44 -74 -61 -53 -30 -55 -33 -38 -46 11 -8 34 -13 52 -11 17 2 32 2 32 0 0 -2
-27 -37 -61 -78 -45 -55 -66 -74 -85 -74 -13 0 -24 -4 -24 -8 0 -16 45 -29 73
-21 15 4 27 4 27 0 0 -10 -89 -113 -111 -129 -36 -25 -22 -35 37 -27 l57 7
-21 -29 c-41 -58 -109 -104 -186 -127 -67 -20 -93 -41 -101 -78 -3 -18 -11
-54 -16 -79 l-10 -47 -67 6 c-54 4 -70 9 -85 29 -10 13 -32 30 -48 38 -31 17
-30 42 2 47 15 2 4 19 -56 86 -41 45 -75 84 -75 87 0 2 20 -3 46 -12 55 -19
70 -8 29 21 -57 41 -134 118 -171 172 -21 30 -40 54 -44 54 -3 0 -12 -41 -19
-92 -6 -51 -21 -112 -31 -136 -11 -25 -20 -55 -20 -69 0 -20 3 -22 19 -13 11
5 22 10 25 10 11 0 5 -35 -9 -54 -15 -19 -21 -56 -9 -56 3 0 15 5 27 12 21 11
21 10 7 -8 -8 -10 -22 -24 -30 -31 -21 -16 -3 -30 20 -15 28 17 30 16 30 -21
0 -24 -6 -35 -22 -42 -13 -6 -31 -27 -41 -47 -18 -36 -19 -37 -42 -22 -25 17
-69 83 -61 92 3 2 17 -3 32 -12 61 -41 31 2 -74 105 -86 85 -113 107 -118 94
-4 -9 1 -24 11 -35 19 -21 22 -112 6 -183 -8 -34 -7 -37 10 -32 23 8 26 -20 7
-72 -11 -30 -16 -33 -38 -28 -29 8 -79 62 -80 88 0 23 15 21 41 -5 l21 -23 -7
25 c-4 14 -17 35 -28 48 l-20 22 21 0 c33 0 26 12 -26 46 -38 25 -56 49 -96
123 -27 50 -52 91 -56 91 -3 0 -11 -37 -18 -81 -8 -60 -20 -94 -42 -129 -37
-57 -37 -68 -4 -72 l26 -3 -25 -27 c-15 -16 -33 -28 -41 -28 -18 0 -122 84
-137 111 -10 20 -10 20 20 4 30 -15 31 -15 31 7 0 12 -10 33 -22 46 l-23 25
22 -12 c45 -23 44 -9 -3 32 -87 76 -143 141 -158 185 -14 39 -14 41 2 33 10
-5 26 -19 37 -31 18 -20 66 -50 80 -50 3 0 5 7 5 15 0 8 -6 15 -13 15 -8 0
-22 9 -32 20 -10 11 -15 20 -11 20 4 0 -9 20 -29 44 -34 41 -34 44 -15 49 20
5 21 7 6 35 -9 17 -38 60 -65 95 -28 36 -66 93 -85 128 -39 71 -42 68 -48 -51
-2 -40 -11 -79 -23 -102 -11 -20 -33 -60 -48 -88 -16 -29 -26 -54 -24 -56 2
-2 17 6 33 18 l29 23 -27 -37 c-35 -45 -35 -50 -2 -37 32 11 42 5 24 -16 -10
-12 -10 -15 4 -15 25 0 19 -16 -21 -61 l-38 -42 33 5 c26 4 32 1 32 -13 0 -10
-5 -21 -10 -24 -16 -10 -50 -82 -50 -105 0 -25 25 -37 45 -20 9 8 15 8 15 2 0
-6 -16 -24 -36 -41 -43 -34 -40 -56 7 -73 26 -9 30 -14 24 -37 -4 -14 -15 -35
-25 -46 -21 -23 -35 -69 -25 -85 4 -7 13 -5 28 5 33 23 40 18 19 -12 -11 -16
-34 -33 -50 -39 -28 -11 -36 -8 -94 27 -35 21 -68 39 -75 39 -7 0 -24 16 -39
35 -14 19 -30 35 -34 35 -4 0 -11 -46 -15 -102 -6 -88 -11 -108 -32 -137 l-26
-33 24 7 c13 4 30 10 37 12 16 7 15 -17 -4 -62 -14 -34 -14 -39 2 -56 15 -17
18 -17 40 -2 13 8 24 11 24 5 0 -17 -31 -86 -60 -132 -15 -25 -31 -58 -34 -74
-6 -25 -5 -28 11 -22 10 4 30 10 46 13 22 5 27 2 27 -15 0 -43 -22 -72 -54
-73 -24 -1 -26 -3 -8 -6 26 -5 26 -9 7 -43 -8 -14 -14 -37 -15 -51 0 -24 -5
-27 -45 -34 -29 -4 -58 -17 -79 -36 -40 -34 -92 -39 -158 -12 -39 15 -87 57
-88 76 0 12 43 7 70 -8 26 -15 82 -20 94 -8 7 7 -89 103 -103 103 -14 0 -71
50 -71 62 0 5 10 6 22 3 32 -11 99 -8 111 4 8 8 4 11 -14 11 -25 0 -156 41
-181 56 -8 5 -2 12 17 20 31 13 28 16 -28 29 -16 3 -44 23 -63 43 -32 35 -33
37 -13 42 11 3 21 9 22 14 2 10 -8 16 -90 52 -34 14 -70 35 -80 47 -18 19 -18
20 4 8 12 -6 29 -11 38 -11 14 0 13 3 -3 28 -35 51 -92 150 -92 160 0 5 -9 21
-21 36 -24 31 -14 34 21 6 26 -20 85 -27 95 -11 3 5 -12 15 -32 21 -54 17
-175 146 -219 232 -19 37 -39 68 -44 68 -6 0 -10 -38 -10 -92 0 -88 -2 -96
-34 -149 -44 -73 -52 -99 -32 -99 9 0 21 9 28 20 18 28 26 25 33 -13 8 -41
-11 -91 -61 -158 -39 -53 -38 -57 7 -33 23 11 34 12 44 4 19 -16 9 -37 -48
-98 -39 -42 -47 -56 -36 -63 21 -13 47 -11 74 7 23 15 25 15 25 0 0 -28 -51
-120 -78 -142 -14 -12 -22 -26 -18 -32 9 -15 51 -15 78 -1 11 6 22 8 26 5 11
-11 -53 -120 -90 -154 -21 -19 -38 -40 -38 -48 0 -7 16 -22 36 -32 l36 -18
-47 -38 -46 -38 -37 26 c-20 14 -43 35 -50 46 -12 20 -11 21 20 18 40 -4 45
17 9 35 -28 14 -88 100 -145 208 -35 67 -40 71 -52 54 -21 -29 -19 -141 4
-154 15 -9 15 -10 -5 -11 -35 0 -29 -35 11 -59 30 -19 66 -60 66 -76 0 -9 -33
-5 -72 9 -33 12 -41 11 -65 -4 -33 -20 -68 -58 -61 -65 3 -3 26 11 52 30 61
48 90 32 46 -25 -11 -14 -20 -36 -20 -50 1 -25 1 -25 28 8 15 18 31 30 35 26
24 -24 -17 -84 -76 -112 l-39 -19 89 -34 c50 -19 92 -38 94 -43 2 -5 -4 -14
-13 -20 -15 -9 -131 7 -212 31 -12 3 -7 -5 15 -26 l34 -30 -33 -1 c-46 0 -96
23 -149 70 -53 46 -81 50 -171 24 -50 -15 -66 -28 -155 -119 -91 -96 -108
-108 -232 -175 -129 -68 -135 -74 -145 -111 -9 -34 -18 -43 -70 -69 -33 -17
-67 -30 -76 -30 -13 0 -14 -3 -4 -15 10 -12 10 -28 0 -80 -7 -38 -9 -92 -6
-132 4 -37 9 -99 11 -138 3 -38 23 -900 45 -1915 47 -2158 60 -2713 65 -2718
4 -5 122 -1 5644 199 2434 87 4427 161 4430 164 2 3 -7 18 -21 33 -24 26
-2711 3182 -2735 3213 -10 13 23 20 273 59 157 25 289 47 293 50 4 3 217 509
473 1125 l465 1120 17 460 17 460 -48 190 -48 190 -250 162 c-137 89 -263 177
-278 195 -18 21 -37 33 -55 34 -15 1 -52 7 -82 14 -53 12 -60 11 -180 -25 -68
-20 -140 -48 -159 -61 -23 -16 -50 -24 -76 -24 -22 0 -98 -18 -169 -40 -106
-33 -142 -40 -212 -40 -74 0 -95 5 -197 44 l-115 44 -121 -38 c-69 -22 -164
-44 -219 -50 -53 -7 -100 -14 -104 -16 -3 -2 -9 -17 -13 -34 -4 -20 -27 -46
-70 -81 -60 -49 -66 -57 -101 -148 -20 -53 -45 -111 -56 -130 -17 -31 -18 -35
-3 -58 20 -30 14 -39 -15 -23 -20 10 -26 8 -51 -20 -23 -25 -43 -34 -101 -46
-88 -18 -200 -59 -248 -91 -20 -12 -56 -25 -80 -29 -43 -5 -47 -4 -86 38 -33
34 -48 63 -74 142 -24 73 -29 100 -20 106 17 10 -12 76 -37 84 -11 4 -29 29
-41 59 -12 29 -35 67 -51 85 l-30 32 30 0 c38 0 37 14 -5 53 -41 39 -70 92
-63 119 4 13 -8 37 -36 72 -23 29 -57 74 -75 100 -24 34 -37 45 -44 38 -7 -7
-4 -20 10 -44 17 -28 19 -41 12 -83 -5 -27 -9 -55 -9 -62 -1 -7 -14 -28 -31
-46 -21 -25 -30 -45 -30 -70 0 -50 25 -56 48 -10 l19 36 7 -27 c8 -33 -5 -59
-57 -113 -44 -46 -45 -59 -3 -44 35 14 34 4 -13 -89 -21 -42 -44 -100 -51
-128 -6 -29 -16 -52 -21 -52 -4 0 -33 9 -62 20 l-54 20 -6 83 c-7 96 -25 153
-67 210 -19 26 -30 53 -30 74 l0 34 36 -27 35 -27 -6 29 c-4 16 -22 54 -41 86
-19 31 -34 69 -34 84 l0 28 30 -29 30 -29 0 28 c0 15 -11 42 -25 60 -28 37
-33 69 -10 60 21 -8 19 5 -9 69 -14 30 -34 87 -46 126 -12 39 -27 71 -33 71
-7 0 -30 -28 -51 -62z"/>
</g>
</svg>
