<?xml version="1.0" standalone="no"?>
<!DOCTYPE svg PUBLIC "-//W3C//DTD SVG 20010904//EN"
 "http://www.w3.org/TR/2001/REC-SVG-20010904/DTD/svg10.dtd">
<svg version="1.0" xmlns="http://www.w3.org/2000/svg"
 width="3840.000000pt" height="2400.000000pt" viewBox="0 0 3840.000000 2400.000000"
 preserveAspectRatio="xMidYMid meet">

<g transform="translate(0.000000,2400.000000) scale(0.100000,-0.100000)"
fill="#936767" stroke="none">
<path d="M30465 14626 c6 -44 4 -51 -21 -77 -27 -28 -27 -29 -6 -29 33 0 27
-29 -15 -72 -29 -30 -33 -38 -19 -38 12 0 16 -5 12 -16 -3 -9 -2 -12 5 -9 5 4
17 4 26 1 14 -6 13 -10 -6 -30 -19 -20 -20 -24 -7 -29 25 -10 20 -60 -9 -87
-31 -29 -33 -45 -3 -29 18 10 20 9 15 -5 -6 -14 -3 -15 14 -6 20 11 20 9 14
-52 -10 -93 -30 -145 -85 -220 -49 -66 -50 -67 -82 -56 -18 5 -60 13 -93 16
-56 7 -61 9 -82 47 -32 58 -106 92 -230 106 -189 21 -233 19 -233 -11 0 -18
-25 -34 -40 -25 -4 3 -10 -2 -14 -10 -10 -26 -43 -17 -65 19 -27 43 -27 46 10
46 l31 0 -26 43 c-36 56 -69 127 -63 134 3 2 19 -3 37 -12 18 -9 33 -15 35
-13 2 2 -21 36 -51 77 -29 41 -61 96 -70 123 -19 57 -38 54 -32 -6 4 -31 -2
-55 -24 -98 -33 -67 -33 -68 -13 -68 8 0 15 -6 15 -12 0 -13 -41 -91 -75 -143
l-20 -30 32 23 c17 12 33 22 36 22 10 0 -6 -50 -19 -61 -12 -10 -12 -15 3 -31
22 -25 17 -29 -137 -119 -69 -40 -194 -123 -279 -183 -143 -103 -164 -122
-288 -266 -92 -107 -163 -202 -230 -309 l-97 -154 -133 -546 -133 -546 1 -540
c1 -297 4 -618 8 -714 l6 -175 4305 -1627 4305 -1627 7 27 c4 14 142 643 308
1396 165 754 303 1377 305 1386 5 14 69 5 528 -72 287 -49 534 -90 550 -93
l27 -5 0 1447 -1 1447 -47 23 c-32 16 -87 28 -162 37 -126 16 -119 18 -204
-48 l-39 -31 -21 27 -22 27 -53 -21 c-96 -36 -95 -32 -41 -129 43 -78 46 -85
28 -88 -12 -2 -33 9 -53 28 -17 17 -36 30 -41 28 -5 -1 -28 1 -52 5 -54 9 -76
-2 -104 -57 -13 -24 -40 -58 -61 -76 l-38 -33 -43 20 -42 21 -85 -33 c-84 -32
-84 -32 -97 -79 -17 -61 -50 -80 -101 -59 -20 8 -51 29 -69 46 -31 30 -33 36
-30 87 3 53 3 54 -28 60 -48 10 -57 19 -50 52 6 32 -14 48 -38 29 -13 -11 -46
-5 -46 8 0 4 7 17 16 29 14 20 14 23 -1 28 -9 4 -24 -1 -34 -10 -27 -24 -41
-20 -57 20 -16 38 -9 53 24 54 23 0 -39 97 -72 113 l-30 14 27 18 27 18 -50
53 c-27 29 -50 57 -50 63 0 5 14 11 30 13 l30 3 -40 60 c-22 33 -45 78 -50
100 -27 105 -33 125 -39 125 -11 0 -47 -63 -66 -115 -10 -27 -34 -69 -53 -92
-33 -41 -33 -42 -16 -68 16 -24 16 -26 -2 -40 -10 -8 -22 -15 -25 -15 -4 0
-25 -24 -48 -54 -46 -61 -70 -73 -111 -56 -42 17 -86 -15 -95 -70 l-7 -40 -50
0 c-33 0 -62 7 -83 20 -32 19 -32 19 -70 0 -22 -11 -58 -20 -80 -20 -37 0 -43
4 -56 32 -10 23 -30 40 -69 60 -30 15 -50 27 -45 28 31 1 37 17 20 50 -9 17
-15 33 -13 34 2 2 11 7 21 13 16 8 10 16 -45 69 -51 48 -63 66 -68 99 -5 39
-5 38 -41 -60 -23 -61 -39 -125 -41 -162 -4 -61 -6 -64 -69 -130 -36 -38 -75
-84 -86 -103 -35 -57 -42 -58 -198 -43 l-140 14 -70 70 -71 69 -182 35 -182
36 -108 -21 c-95 -19 -127 -20 -281 -14 l-175 7 -130 58 -131 58 -232 30
c-128 16 -245 37 -261 45 -15 8 -87 50 -159 93 l-130 78 -70 104 c-44 64 -114
147 -186 220 l-117 117 -72 17 c-121 29 -359 17 -399 -19 -27 -24 -160 -64
-213 -64 -49 0 -54 3 -134 76 -72 66 -96 81 -180 115 -91 36 -97 40 -110 76
-11 33 -28 48 -120 106 l-107 68 -81 -5 c-70 -4 -101 -13 -210 -59 l-129 -54
-34 -56 c-29 -49 -36 -56 -49 -45 -25 21 -52 90 -52 136 0 39 2 42 28 42 l27
0 -37 33 c-20 17 -41 42 -47 54 -9 18 -8 23 9 28 17 5 18 10 9 28 -7 12 -27
39 -45 60 -37 40 -42 57 -19 57 22 0 19 12 -15 50 -29 35 -38 60 -21 60 5 0
14 -7 21 -15 7 -9 15 -13 18 -10 3 2 -7 16 -21 29 -30 27 -36 52 -12 42 14 -5
14 -4 0 16 -18 26 -20 47 -3 30 19 -19 29 -14 22 13 -4 15 -2 25 5 25 21 0 11
16 -16 26 -22 9 -33 24 -52 78 -13 37 -34 80 -48 94 l-24 27 6 -49z"/>
<path d="M10220 14543 c-36 -2 -220 -7 -410 -12 l-345 -8 -162 -56 c-90 -30
-178 -65 -197 -76 -18 -12 -44 -21 -58 -21 -13 0 -35 -12 -49 -26 -34 -36 -47
-42 -125 -54 -38 -6 -170 -31 -294 -57 l-225 -47 -159 -108 -159 -108 -161 0
c-127 0 -214 -7 -411 -34 l-250 -34 -130 -62 -130 -63 -320 -59 -320 -59 -256
46 c-223 39 -274 45 -400 45 -126 1 -167 -4 -335 -36 l-190 -38 -230 108 -229
108 -159 17 -159 18 -131 -40 -131 -39 -135 11 c-74 7 -191 21 -260 33 -118
19 -147 20 -515 13 -457 -10 -418 -9 -475 -1 -43 7 -48 5 -112 -44 -46 -34
-153 -91 -332 -175 l-265 -125 -118 -11 c-107 -11 -122 -15 -156 -42 -31 -24
-50 -30 -105 -35 -40 -3 -77 -12 -92 -22 -14 -10 -57 -33 -96 -53 -67 -34
-110 -75 -128 -122 -4 -11 -12 -135 -17 -275 -5 -140 -14 -282 -21 -316 -17
-81 -55 -115 -164 -145 -54 -15 -99 -35 -144 -66 -60 -42 -76 -48 -225 -80
-88 -19 -207 -50 -265 -70 -58 -20 -136 -39 -175 -42 -42 -4 -81 -14 -97 -24
-15 -10 -52 -60 -83 -112 -40 -66 -65 -97 -86 -105 l-29 -12 0 -889 c0 -489 3
-889 6 -889 3 0 133 61 289 135 l283 135 1353 -2 1354 -3 350 -148 350 -148
1510 -5 1510 -6 443 -215 444 -216 696 12 c384 6 729 11 767 11 l70 -1 -26
-22 c-96 -81 -2629 -2380 -2629 -2386 0 -7 7538 -1117 7544 -1110 4 4 36 514
36 572 0 16 4 26 10 22 5 -3 46 -60 91 -126 46 -66 86 -122 91 -125 4 -3 261
49 571 117 l562 121 95 55 95 55 334 -6 c184 -3 336 -8 338 -10 2 -2 -57 -559
-131 -1237 -75 -678 -134 -1234 -132 -1236 3 -4 7648 828 7654 833 2 1 -127
278 -286 616 -160 337 -444 937 -631 1332 -187 396 -339 722 -336 724 2 2 376
109 832 238 455 128 847 242 870 253 39 19 1304 710 1312 717 4 4 -323 1613
-425 2087 -35 163 -70 310 -79 327 -8 16 -15 42 -15 57 -1 27 -114 480 -122
489 -3 2 -32 7 -66 10 -74 8 -92 -3 -162 -104 -89 -126 -107 -132 -173 -64
-28 29 -38 47 -40 77 -2 37 0 40 26 43 l29 3 -54 57 c-29 31 -72 79 -96 106
-40 47 -42 48 -42 22 0 -51 -23 -121 -51 -157 -18 -23 -26 -44 -22 -57 5 -19
7 -19 39 -6 19 8 34 12 34 9 0 -2 -11 -30 -25 -62 l-26 -58 -20 32 c-18 28
-67 69 -73 61 -2 -2 -14 -32 -28 -68 l-26 -65 -102 -3 -103 -3 -55 -50 c-30
-28 -81 -68 -113 -90 -36 -24 -61 -49 -65 -64 -9 -35 -60 -38 -96 -6 -27 24
-27 24 -90 8 -69 -16 -206 -10 -262 12 -25 10 -27 13 -13 24 27 21 4 56 -42
63 -37 6 -39 8 -30 26 9 16 7 26 -10 49 -28 37 -27 59 2 59 20 0 19 2 -10 21
-29 18 -33 27 -33 63 0 31 -9 55 -35 94 -31 45 -35 58 -30 90 l6 37 -19 -24
c-21 -26 -24 -24 -42 33 -17 53 -30 29 -30 -56 0 -57 -4 -74 -30 -115 -35 -55
-37 -63 -10 -56 24 6 28 -18 5 -37 -18 -15 -20 -47 -2 -53 8 -3 1 -19 -21 -50
-28 -40 -31 -47 -15 -47 16 -1 15 -3 -4 -19 -27 -23 -29 -31 -7 -31 27 0 7
-61 -34 -101 -34 -32 -46 -37 -131 -49 -67 -9 -101 -19 -120 -35 -14 -12 -48
-34 -74 -50 -27 -15 -55 -41 -64 -59 -8 -17 -17 -32 -18 -34 -2 -2 -30 -10
-64 -18 -50 -11 -70 -12 -107 -2 -41 11 -57 10 -156 -16 -121 -32 -183 -32
-408 0 -58 8 -112 15 -120 15 -8 0 -31 3 -50 6 l-35 5 34 16 c19 10 36 22 38
28 2 6 -12 32 -32 58 -19 25 -35 48 -35 51 0 3 11 5 25 5 14 0 25 3 25 6 0 3
-21 29 -46 57 -25 28 -49 58 -55 68 -8 16 -5 17 26 12 47 -8 46 7 -10 78 -25
32 -45 60 -45 62 0 3 10 3 23 0 18 -5 13 3 -23 41 -41 43 -43 46 -20 46 l24 0
-26 28 c-39 42 -52 70 -32 74 12 2 7 14 -23 50 l-38 48 -8 -32 c-5 -18 -20
-45 -33 -61 -30 -35 -31 -52 -3 -37 33 18 37 0 5 -25 -17 -14 -26 -28 -21 -35
5 -8 14 -5 32 12 l26 23 -7 -30 c-4 -16 -18 -46 -32 -65 l-25 -35 30 -26 31
-25 -56 -55 -55 -54 30 -25 c28 -24 29 -27 20 -75 -6 -34 -17 -57 -34 -70 -20
-16 -25 -30 -25 -64 0 -37 -6 -49 -47 -92 -44 -45 -51 -49 -81 -43 l-32 7 25
33 c14 18 25 35 25 38 0 2 -20 19 -44 37 -34 24 -52 47 -72 94 l-27 63 -117
31 c-186 49 -300 38 -363 -34 l-22 -26 -40 42 -40 42 54 -6 55 -7 -46 48 c-40
41 -98 122 -98 137 0 13 45 3 71 -16 41 -29 36 -16 -16 40 -26 27 -63 86 -87
137 l-43 89 -5 -55 c-3 -31 -19 -84 -37 -122 -28 -60 -30 -68 -14 -68 27 0 30
-8 17 -50 -7 -23 -26 -52 -45 -68 l-33 -28 32 -48 c37 -54 35 -63 -27 -135
-35 -42 -31 -51 23 -51 30 0 31 -16 2 -24 -22 -6 -88 -60 -88 -71 0 -3 21 -5
48 -6 l47 -1 -38 -12 c-23 -7 -46 -23 -55 -38 -18 -31 -62 -42 -110 -29 -27 8
-42 5 -85 -15 -29 -13 -60 -24 -70 -24 -33 0 -77 -29 -77 -51 0 -22 -37 -64
-82 -93 -41 -27 -125 -46 -205 -46 -89 0 -118 -11 -164 -61 -42 -45 -55 -48
-65 -17 -4 13 -20 35 -36 50 l-30 28 26 0 c33 0 33 10 1 40 -29 27 -33 50 -8
50 13 0 11 6 -10 28 -15 16 -24 31 -21 35 4 3 -5 20 -19 36 -13 16 -28 47 -32
68 -6 35 -8 37 -21 18 -8 -10 -14 -29 -14 -41 0 -13 -9 -29 -21 -37 -13 -9
-16 -17 -10 -22 16 -9 13 -47 -5 -73 -13 -20 -14 -24 0 -43 13 -20 13 -25 0
-51 -8 -16 -12 -38 -9 -48 5 -17 10 -18 27 -9 20 11 20 11 2 -14 -31 -41 -68
-42 -133 -3 -31 19 -103 55 -161 81 -58 25 -174 82 -258 125 -151 80 -153 80
-229 80 l-76 0 -81 74 c-63 57 -117 92 -241 159 -230 123 -203 120 -435 52
-107 -32 -212 -62 -233 -67 -34 -10 -38 -15 -52 -62 -34 -122 -34 -116 3 -189
22 -43 32 -75 29 -89 -4 -13 2 -35 15 -56 l21 -33 -31 -32 c-20 -21 -33 -47
-38 -74 -5 -32 -11 -43 -28 -45 -11 -2 -22 -10 -23 -18 -1 -8 -5 -45 -8 -82
-6 -67 -7 -68 -86 -157 -60 -67 -91 -94 -124 -107 l-44 -16 -78 37 c-43 20
-111 47 -150 60 -70 22 -75 22 -135 8 -85 -21 -129 -54 -127 -96 2 -37 -15
-115 -28 -128 -6 -6 -52 5 -114 25 -101 33 -106 34 -199 25 -110 -10 -107 -12
-135 78 l-18 58 -13 -35 c-7 -19 -13 -47 -13 -61 -1 -35 -30 -59 -73 -59 -34
0 -35 -1 -36 -40 -1 -25 -9 -47 -22 -60 -11 -11 -20 -27 -20 -35 0 -8 -11 -17
-24 -21 -23 -5 -23 -7 20 -51 24 -25 44 -48 44 -51 0 -4 -24 -19 -53 -35 -75
-39 -124 -82 -139 -123 -11 -32 -15 -35 -48 -32 -23 2 -35 8 -35 18 0 10 8 14
25 12 24 -3 24 -2 6 13 -11 8 -28 15 -38 15 -22 0 -35 27 -20 42 8 8 18 6 36
-6 14 -9 31 -16 38 -16 9 0 10 3 2 8 -6 4 -16 17 -23 30 -6 12 -18 22 -25 22
-8 0 -19 7 -26 15 -11 13 -4 14 54 12 36 -1 66 0 66 4 0 9 -64 39 -83 39 -18
0 -49 39 -41 52 3 5 17 2 30 -6 27 -19 52 -20 91 -5 l28 11 -52 25 c-37 17
-53 30 -53 44 0 15 7 19 32 19 l31 0 -56 59 c-58 60 -64 74 -47 101 7 11 1 22
-27 46 l-37 31 30 -4 c27 -4 30 -2 29 23 0 24 5 29 30 34 34 6 26 14 -25 24
-19 4 -46 16 -59 26 -22 19 -23 21 -7 45 9 14 22 25 29 26 6 0 -5 7 -25 16
-40 16 -47 27 -23 37 22 8 19 18 -20 76 -41 61 -42 64 -14 50 42 -23 38 -3 -9
50 -27 30 -54 69 -59 87 l-11 31 36 -15 37 -15 -22 24 c-13 13 -23 32 -23 42
0 23 -74 159 -96 177 -14 11 -19 10 -35 -10 -10 -12 -21 -39 -25 -59 -8 -44
-38 -96 -67 -117 -16 -11 -17 -15 -6 -15 9 0 24 9 34 20 10 11 22 20 28 20 13
0 -1 -51 -20 -73 -22 -24 -8 -34 17 -12 20 18 20 17 20 -9 0 -15 -18 -54 -40
-87 -22 -33 -40 -61 -40 -63 0 -1 17 0 38 2 l37 3 -41 -40 c-38 -36 -40 -41
-25 -56 14 -14 14 -17 1 -26 -11 -8 -9 -9 12 -5 45 10 41 -11 -11 -62 -50 -49
-54 -62 -20 -62 26 0 32 -41 9 -65 -11 -12 -17 -24 -13 -28 3 -4 -2 -16 -12
-28 -12 -12 -15 -23 -9 -27 5 -4 11 -19 12 -33 1 -20 -6 -29 -29 -40 l-30 -14
20 -27 c25 -31 26 -38 6 -38 -8 0 -24 -9 -36 -21 -25 -25 -25 -24 -49 37 -10
27 -25 50 -34 52 -9 2 -47 21 -84 43 -83 49 -96 50 -87 7 27 -124 123 -186
303 -195 89 -5 105 -4 122 12 11 10 20 14 20 8 0 -29 -84 -73 -141 -73 -15 0
-31 -4 -34 -10 -4 -6 22 -10 72 -10 107 0 119 -11 51 -44 -77 -38 -159 -53
-201 -38 -75 27 -78 -1 -6 -58 45 -36 57 -40 105 -40 46 0 54 -3 54 -19 0 -37
-126 -44 -191 -10 -34 17 -46 19 -68 10 -14 -6 -97 -17 -184 -24 -181 -14
-178 -15 -240 65 -28 36 -36 53 -28 61 7 7 2 16 -19 29 -30 18 -40 38 -18 38
6 0 4 6 -6 13 -26 19 -13 52 36 88 23 16 45 29 49 29 4 0 20 5 36 11 22 8 24
12 13 19 -8 6 -31 10 -50 10 -34 0 -80 22 -80 39 0 4 15 5 34 3 94 -11 167 56
219 202 25 69 33 105 27 115 -8 14 -9 14 -10 -2 -1 -57 -93 -157 -146 -157
-31 0 -39 17 -18 41 18 20 12 41 -7 22 -6 -6 -28 -7 -55 -3 -25 4 -47 3 -50
-2 -4 -5 -20 -19 -38 -30 l-31 -20 53 6 c65 8 68 -5 10 -54 l-41 -36 28 0 c15
1 30 -5 32 -11 3 -9 -8 -13 -36 -13 -32 0 -39 -3 -35 -15 4 -8 1 -15 -5 -15
-9 0 -9 -5 -1 -21 9 -16 8 -25 -6 -40 -9 -10 -21 -19 -25 -19 -5 0 -27 23 -50
52 -36 46 -39 53 -23 58 10 4 34 3 52 -1 34 -7 33 -7 -24 47 -60 55 -66 72
-21 55 21 -8 25 -7 21 4 -3 7 -12 16 -19 19 -8 3 -23 23 -35 46 -20 40 -20 40
0 40 27 0 25 6 -10 47 -16 18 -30 38 -30 43 0 6 -6 10 -14 10 -16 0 -41 -82
-37 -122 1 -20 -8 -36 -38 -64 -23 -20 -41 -41 -41 -45 0 -4 13 -12 30 -17 38
-14 31 -42 -11 -42 -16 0 -29 -4 -29 -10 0 -5 4 -10 9 -10 12 0 -14 -73 -29
-78 -6 -2 -20 4 -31 13 -14 14 -16 21 -8 31 8 10 5 21 -12 45 l-23 32 32 -6
c44 -9 46 3 6 42 -33 34 -38 66 -5 37 21 -20 51 -21 51 -3 0 8 -9 22 -20 32
-12 11 -18 25 -15 36 3 10 0 21 -8 26 -20 12 -29 43 -12 43 7 0 16 -9 20 -19
9 -30 34 -34 41 -7 6 24 -13 71 -47 115 -23 29 -24 41 -3 41 15 0 15 2 0 25
-18 27 -22 70 -6 60 6 -3 10 -2 10 4 0 5 -4 13 -10 16 -5 3 -10 17 -10 29 0
13 -7 29 -15 36 -8 7 -12 16 -9 21 3 5 -4 23 -16 39 -12 17 -25 42 -28 55 -12
42 -26 29 -41 -36 -10 -48 -21 -69 -53 -101 -36 -36 -38 -41 -22 -52 15 -12
14 -14 -14 -24 -41 -14 -42 -41 -2 -48 45 -10 36 -30 -31 -73 l-62 -39 44 -10
44 -9 -62 -29 c-56 -27 -62 -32 -65 -64 -2 -29 -7 -35 -29 -38 -14 -2 -30 3
-36 10 -6 7 -13 61 -17 120 -6 104 -5 108 17 122 12 8 46 17 74 21 70 9 75 22
11 30 -36 5 -47 10 -36 16 13 7 9 16 -23 49 -33 35 -39 47 -39 85 0 49 11 63
31 39 7 -8 22 -20 33 -26 20 -11 20 -11 2 18 -10 16 -30 44 -43 62 -13 18 -23
42 -21 55 l3 22 23 -23 c30 -30 43 -20 15 11 -33 36 -41 58 -36 97 6 40 -4 54
-27 40 -8 -5 -14 -27 -14 -57 -1 -40 -8 -59 -38 -100 -24 -34 -33 -53 -25 -57
8 -3 4 -11 -12 -24 -17 -14 -20 -21 -11 -27 7 -4 24 5 44 24 18 17 35 31 39
31 4 0 7 -22 7 -49 0 -41 -4 -51 -20 -56 -11 -3 -23 -17 -26 -29 -3 -13 -23
-33 -45 -46 -49 -27 -49 -54 -2 -58 28 -3 33 -8 39 -38 8 -43 0 -64 -24 -64
-10 0 -24 -11 -30 -25 -16 -34 -16 -35 11 -35 12 0 29 -4 37 -10 9 -5 19 -5
27 2 8 6 17 8 21 4 4 -4 -2 -15 -13 -23 -14 -11 -16 -17 -7 -20 13 -5 17 -33
4 -33 -4 0 -12 4 -18 9 -5 5 -20 11 -34 13 -29 4 -86 76 -114 145 -11 26 -37
70 -58 98 -51 66 -88 146 -88 188 0 19 -7 40 -15 47 -8 7 -15 18 -15 24 0 6
-14 31 -30 56 -27 41 -30 52 -30 130 0 93 4 104 38 114 41 13 52 54 52 189 0
85 -5 138 -15 167 -8 23 -15 64 -15 89 0 48 -5 60 -94 222 -68 124 -66 113
-55 477 5 180 13 336 18 347 15 36 -5 63 -71 96 -118 60 -243 153 -446 332
-216 191 -410 395 -570 598 -53 68 -112 137 -129 152 -36 31 -42 52 -18 61 9
3 15 18 15 36 0 29 -2 30 -41 30 l-41 0 4 -36 c4 -33 0 -40 -71 -106 -154
-144 -420 -238 -673 -238 -54 0 -98 4 -98 9 0 13 -71 56 -115 69 -22 6 -49 18
-59 25 -18 13 -18 16 12 60 20 28 32 58 32 78 0 21 -28 87 -81 188 -45 86 -84
159 -88 162 -8 8 -245 17 -331 12z m1482 -633 c1 -170 2 -325 2 -342 1 -24 -3
-32 -14 -31 -8 1 -82 9 -165 18 -88 10 -159 22 -172 31 -12 8 -27 14 -33 14
-6 0 -45 16 -86 36 -73 34 -80 36 -202 38 l-127 3 3 40 c2 23 -5 58 -18 87
-11 26 -20 61 -20 76 0 33 5 35 153 45 173 12 368 64 436 117 13 10 27 18 32
18 8 0 64 36 89 58 48 40 76 62 82 62 4 0 10 9 13 20 19 60 25 -4 27 -290z
m123 199 c39 -50 89 -115 112 -143 23 -28 64 -78 90 -111 64 -80 360 -376 500
-500 105 -92 240 -189 355 -253 26 -15 48 -32 48 -37 0 -10 -212 -75 -308 -94
-29 -6 -106 -11 -171 -11 -106 0 -121 2 -152 23 -30 20 -35 30 -41 80 -8 61
-31 115 -53 123 -7 3 -16 16 -19 28 -17 70 -135 166 -286 235 -63 28 -126 60
-140 71 l-25 19 -3 258 c-4 252 3 403 17 403 4 0 38 -41 76 -91z m1131 -1095
c4 -14 4 -80 0 -147 -3 -67 -9 -200 -12 -295 -5 -121 -10 -172 -18 -169 -19 6
-290 361 -300 394 -4 11 -13 27 -21 33 -8 7 -15 20 -15 29 0 9 -19 25 -41 37
-23 11 -42 24 -43 30 0 5 22 12 49 15 66 8 293 67 325 85 41 22 69 18 76 -12z
m1394 -2655 c0 -10 -59 -39 -80 -39 -5 0 -10 11 -10 25 0 23 4 25 45 25 25 0
45 -5 45 -11z"/>
<path d="M14510 11137 c-16 -13 -60 -73 -60 -82 0 -3 6 -5 14 -5 24 0 29 -20
12 -39 -10 -10 -25 -35 -35 -55 -15 -29 -16 -36 -5 -36 21 0 17 -9 -16 -37
-27 -22 -43 -52 -21 -38 5 3 12 1 15 -4 10 -15 -22 -34 -47 -27 -30 7 -41 -3
-25 -22 10 -11 8 -17 -7 -29 -19 -14 -17 -15 23 -10 40 5 43 4 39 -15 -5 -16
-2 -19 16 -15 12 3 40 9 62 13 46 7 89 43 116 96 36 70 21 87 -33 39 -18 -15
-43 -33 -55 -40 -24 -12 -63 -15 -63 -3 0 4 27 43 59 88 49 69 59 89 64 136 5
49 3 59 -16 76 -18 16 -25 18 -37 9z"/>
<path d="M14810 10838 c-6 -24 -13 -49 -15 -55 -3 -8 5 -13 19 -13 13 0 37 -3
55 -6 l31 -6 -27 61 c-14 33 -32 61 -39 61 -7 0 -18 -19 -24 -42z"/>
<path d="M14890 10740 c-8 -6 -31 -10 -50 -11 -19 0 -43 -4 -53 -7 -15 -6 -15
-10 -5 -24 10 -13 31 -18 91 -19 42 -1 79 0 81 2 2 2 -8 18 -23 36 -20 24 -30
29 -41 23z"/>
<path d="M14328 10693 c7 -3 16 -2 19 1 4 3 -2 6 -13 5 -11 0 -14 -3 -6 -6z"/>
<path d="M14938 10623 c7 -3 16 -2 19 1 4 3 -2 6 -13 5 -11 0 -14 -3 -6 -6z"/>
<path d="M14498 10317 c-35 -14 -48 -25 -48 -40 0 -17 5 -19 45 -14 55 6 57 7
53 44 l-3 30 -47 -20z"/>
</g>
</svg>
